<svg version="1.1" viewBox="0 0 56.778 49.965" xmlns="http://www.w3.org/2000/svg">
 <g transform="matrix(.19412 0 0 .25014 .2923 -7.0683)" stroke-width="1.0658">
  <path d="m2.7235 226.05c-2.4055-1.556-2.519-3.1033-2.519-34.358 0-20.283 0.2497-31.058 0.71972-31.058 0.39584 0 0.71972-0.30551 0.71972-0.67892s0.46269-1.0863 1.0282-1.5842c1.5144-1.3333 12.693-1.2404 15.741 0.1309 2.917 1.3122 6.2619 4.543 6.2619 6.0483 0 0.63426 0.32388 1.1532 0.71972 1.1532 0.39584 0 0.71972 0.85545 0.71972 1.901v1.901h73.412v-1.5314c0-0.84224-0.40485-1.6502-0.89966-1.7954-0.63404-0.18608-0.89966-2.0101-0.89966-6.1782s0.26561-5.9921 0.89966-6.1782c0.49481-0.14521 0.89966-0.63307 0.89966-1.0841 0-0.45105 0.49465-1.1815 1.0992-1.6233 0.90648-0.66235 1.0642-2.3148 0.89966-9.4241l-0.19956-8.6209-2.8698-0.20563c-1.5783-0.11311-3.1978-0.43022-3.5986-0.70471-0.40086-0.27449-1.5386-0.67048-2.5282-0.87999-2.3626-0.50016-5.9035-3.4024-7.4231-6.0843-1.3218-2.3326-1.6514-7.0164-0.49389-7.0164 1.3118 0 0.82017-3.8141-0.5398-4.1884-1.8114-0.49853-5.4315-2.2667-6.4457-3.1483-0.4773-0.41488-1.5516-1.9093-2.3873-3.321-1.3114-2.2151-1.4507-3.1817-1.0169-7.0577 0.27646-2.4701 0.78396-4.6441 1.1278-4.8312s0.62516-1.1649 0.62516-2.1728 0.48581-3.4748 1.0796-5.4819c0.59377-2.0071 1.0796-4.7299 1.0796-6.0507s0.29017-2.4015 0.64482-2.4015 0.87417-2.2812 1.1544-5.0693c0.28032-2.7881 0.76474-5.0693 1.0765-5.0693 0.31174 0 0.77565-0.73264 1.0309-1.6281 0.25526-0.89545 1.505-2.5351 2.777-3.6436l2.3129-2.0155 8.4436 0.07116c4.6439 0.03914 8.8544 0.36709 9.3564 0.72879s3.4276 0.86257 6.5012 1.1131c3.0735 0.25048 5.7437 0.67687 5.9337 0.94752 0.18999 0.27065 2.9382 0.69416 6.1073 0.94114 3.169 0.24698 5.7619 0.67581 5.7619 0.95296s1.3765 0.66603 3.0589 0.86419c12.966 1.5272 15.654 1.9303 15.654 2.3473 0 0.26104 2.753 0.67651 6.1176 0.92327 3.3648 0.24676 6.1176 0.67449 6.1176 0.9505s2.753 0.70373 6.1176 0.9505c3.3648 0.24676 6.1176 0.70008 6.1176 1.0074s1.2764 0.55872 2.8365 0.55872c1.56 0 3.0129 0.25126 3.2283 0.55836 0.21558 0.3071 2.9067 0.7633 5.9802 1.0138 3.0735 0.25048 5.9299 0.70078 6.3473 1.0006 0.41748 0.29987 3.4134 0.74011 6.6575 0.97831 3.2441 0.2382 5.8984 0.67724 5.8984 0.97565s1.1549 0.54256 2.5664 0.54256c1.4115 0 3.1619 0.28063 3.8898 0.62362 0.72795 0.34299 3.6216 0.81166 6.4302 1.0415 2.8086 0.22983 5.1066 0.63239 5.1066 0.89458s2.5928 0.67879 5.7619 0.92577c3.169 0.24698 5.9201 0.67456 6.1137 0.95018s2.9464 0.70334 6.1176 0.9505c3.1712 0.24715 5.9451 0.7047 6.1642 1.0168 0.21907 0.31207 1.8175 0.5674 3.5522 0.5674s3.337 0.261 3.561 0.58c0.22394 0.319 2.8388 0.78061 5.8106 1.0258 2.972 0.24519 5.5589 0.66725 5.7489 0.9379 0.18999 0.27065 2.9382 0.69416 6.1073 0.94114 3.169 0.24698 5.7619 0.67484 5.7619 0.95081s2.591 0.70369 5.7578 0.9505c3.1668 0.2468 5.7578 0.70421 5.7578 1.0164s0.48582 0.56771 1.0796 0.56771c1.3348 0 1.4625 2.9038 0.17993 4.0931-0.49481 0.45887-2.1952 2.1816-3.7785 3.8283-1.5834 1.6467-3.7696 3.7768-4.8581 4.7336-1.0886 0.95679-1.9793 2.3335-1.9793 3.0594s-0.30211 1.4841-0.67136 1.685c-0.36925 0.20092-0.89688 2.6415-1.1725 5.4235-0.27564 2.782-0.75415 5.0582-1.0634 5.0582-0.30919 0-0.79189 2.428-1.0726 5.3956-0.28078 2.9676-0.79568 5.5507-1.1442 5.7404-0.34855 0.18965-0.63372 1.4518-0.63372 2.8047s-0.30211 2.6242-0.67136 2.8252c-0.36925 0.20092-0.89689 2.6415-1.1725 5.4235-0.27564 2.782-0.74084 5.0582-1.0338 5.0582-0.29294 0-0.71388 0.98333-0.9354 2.1852-0.46073 2.4997-4.8716 6.6861-7.0446 6.6861-0.75771 0-1.3776 0.28514-1.3776 0.63366 0 0.34851-1.4575 0.63366-3.2388 0.63366s-3.2388-0.28515-3.2388-0.63366c0-0.34852-1.2275-0.63366-2.7277-0.63366s-4.5929-0.42773-6.8725-0.9505c-2.2797-0.52277-5.0815-0.95049-6.2264-0.95049-1.1449 0-2.2608-0.25533-2.48-0.5674s-2.9929-0.76961-6.1642-1.0168c-3.1712-0.24716-5.9214-0.67081-6.1114-0.94146-0.18998-0.27065-2.8601-0.69703-5.9337-0.94752-3.0736-0.25049-5.9122-0.68002-6.308-0.95452-0.39584-0.27451-2.0152-0.6634-3.5986-0.8642-8.1544-1.0341-14.473-2.0395-15.114-2.4052-0.39585-0.22543-3.2298-0.61537-6.2977-0.86652-3.0678-0.25116-5.5779-0.6827-5.5779-0.95898s-2.753-0.70423-6.1176-0.95099c-3.3648-0.24677-6.1176-0.70009-6.1176-1.0074s-1.2764-0.55872-2.8364-0.55872c-1.5599 0-3.0187-0.25963-3.2414-0.57697-0.22276-0.31734-3.1568-0.77879-6.52-1.0254-3.3633-0.24665-6.115-0.6702-6.115-0.94123 0-0.27102-2.672-0.69909-5.9377-0.95128-3.2657-0.25219-6.0997-0.6794-6.2977-0.94937s-2.8699-0.69711-5.9377-0.94921l-5.5779-0.45836v6.4111c0 3.8516 0.28733 6.4111 0.71972 6.4111 0.39585 0 0.71973 0.30551 0.71973 0.67893 0 0.3734 0.48582 1.1066 1.0796 1.6294 0.59377 0.52277 1.0796 1.5004 1.0796 2.1726 0 0.67213 0.32388 1.2221 0.71973 1.2221 0.39584 0 0.71972 1.5532 0.71972 3.4516 0 5.4418-4.9688 12.348-9.6241 13.377-1.0404 0.22989-1.8916 0.67221-1.8916 0.98295 0 0.31073-0.48582 0.56497-1.0796 0.56497-0.86967 0-1.0796 0.9857-1.0796 5.0693 0 2.7881-0.28784 5.0693-0.63963 5.0693-0.3518 0-0.84966 0.98571-1.1064 2.1905-0.45349 2.1282-2.2229 4.4499-5.0196 6.5865-0.75223 0.57466-1.9338 1.5148-2.6257 2.0892-0.6919 0.57442-2.2589 1.2379-3.4822 1.4745-1.2233 0.23655-2.409 0.69331-2.6348 1.015-0.24238 0.34529-15.725 0.58491-37.794 0.58491h-37.383v9.7844c0 5.8394-0.29019 9.9423-0.71972 10.176-0.39586 0.2154-0.71972 0.81665-0.71972 1.3361 0 1.1198-4.4606 5.3173-5.6506 5.3173-0.45483 0-0.82696 0.28515-0.82696 0.63366 0 0.73383-14.357 0.8718-15.474 0.14871zm14.935-6.0094c1.6132-1.4196 1.6202-1.516 1.8462-25.188 0.12472-13.07 0.02049-25.26-0.23163-27.089-0.39052-2.8335-0.71719-3.3833-2.206-3.7122-0.96119-0.2124-1.7476-0.64041-1.7476-0.95115 0-0.31073-1.7813-0.56497-3.9584-0.56497h-3.9584v58.931h4.3184c3.5177 0 4.6186-0.2642 5.9377-1.425zm81.869-27.09c0-0.34851 0.79359-0.63366 1.7636-0.63366s2.0226-0.37794 2.3391-0.83986c0.31655-0.46193 1.1497-1.0258 1.8514-1.253 0.70172-0.2272 1.4933-0.91856 1.759-1.5364 0.26576-0.6178 0.90617-1.5001 1.4232-1.9606 0.51696-0.46053 0.93993-1.6724 0.93993-2.6931s0.34004-1.8557 0.75563-1.8557c0.46512 0 0.67266-1.4008 0.5398-3.6436l-0.21585-3.6436-84.567-0.32696v19.02h36.706c23.991 0 36.706-0.21951 36.706-0.63367zm17.274-24.079c0-0.34852 0.63303-0.63367 1.4067-0.63367 1.7977 0 5.0708-2.8576 5.0708-4.427 0-0.66062 0.32387-1.3774 0.71972-1.5928 0.89147-0.48508 0.95377-3.9167 0.0797-4.3922-0.352-0.19154-0.85381-1.0983-1.1151-2.0149-0.60222-2.1125-1.883-3.2401-4.2824-3.7703-1.0412-0.23007-2.071-0.67187-2.2886-0.98177-0.54525-0.77674-5.3487-0.7137-5.3487 0.0702 0 0.34852-0.64494 0.63367-1.4332 0.63367-2.0302 0-5.6486 3.5665-6.1884 6.0994-0.2506 1.176-0.24693 3.1177 8e-3 4.3148 0.54013 2.5349 3.7818 6.0611 5.572 6.0611 0.68018 0 1.4369 0.28515 1.6815 0.63367 0.24466 0.34851 1.7212 0.63366 3.2813 0.63366s2.8364-0.28515 2.8364-0.63366zm144.78-17.524c0.77539-0.61781 1.3162-1.9196 1.3162-3.1683 0-1.1658 0.28556-2.1196 0.63459-2.1196 0.34904 0 0.86392-2.4238 1.1442-5.3861 0.28029-2.9624 0.80441-5.3861 1.1647-5.3861s0.65512-1.2261 0.65512-2.7248c0-1.4986 0.3001-2.9956 0.6669-3.3267 1.0699-0.96573 1.8386-9.7901 0.85282-9.7901-0.86349 0-5.8381 4.2329-5.8381 4.9677 0 0.23277-1.7003 2.0474-3.7785 4.0325s-4.7502 4.6157-5.9377 5.8459-2.564 2.2425-3.0589 2.2497c-0.49481 7e-3 -0.89966 0.28537-0.89966 0.6181 0 0.33272-1.1372 0.79277-2.527 1.0223-1.3898 0.22956-2.7045 0.6702-2.9213 0.97921-0.52087 0.74201-6.0672 0.72834-6.0672-0.0149 0-0.31723-2.753-0.77868-6.1176-1.0254-3.3647-0.24676-6.1176-0.70008-6.1176-1.0074 0-0.30728-1.2764-0.5587-2.8364-0.5587-1.56 0-3.0187-0.25964-3.2414-0.57698-0.22277-0.31734-3.1568-0.77879-6.52-1.0254-3.3633-0.24665-6.115-0.66638-6.115-0.93273s-2.51-0.68882-5.5779-0.93883c-3.0678-0.25002-5.9017-0.67917-6.2977-0.95367-0.39586-0.27451-2.0153-0.6642-3.5986-0.86599-10.536-1.3427-13.808-1.8521-14.812-2.3058-0.62536-0.2828-3.3783-0.71928-6.1176-0.96996-2.7394-0.25068-5.3045-0.67207-5.7003-0.93643-0.39586-0.26436-3.2277-0.68159-6.2928-0.9272-3.0652-0.2456-5.7563-0.70755-5.9802-1.0265-0.22392-0.319-1.8455-0.58-3.6035-0.58s-3.1963-0.25547-3.1963-0.56771-2.5928-0.76978-5.7619-1.0168c-3.169-0.24698-5.9201-0.67456-6.1137-0.95018s-2.9446-0.7032-6.1137-0.95018c-3.169-0.24698-5.7619-0.70452-5.7619-1.0168 0-0.31225-0.63636-0.56772-1.4141-0.56772s-1.7773-0.59748-2.2212-1.3277c-0.66351-1.0915-0.54531-1.5425 0.66431-2.5347 1.5327-1.2572 4.7491-1.6289 5.4503-0.62993 0.22276 0.31734 3.1568 0.77879 6.52 1.0254 3.3633 0.24665 6.115 0.69989 6.115 1.0072s1.0526 0.56317 2.3391 0.56861c1.2865 5e-3 4.2824 0.42301 6.6575 0.92793 2.3751 0.50491 5.3519 0.92818 6.615 0.94059 1.2632 0.0124 2.4834 0.28856 2.7115 0.61366 0.22821 0.32509 3.0003 0.78963 6.1601 1.0323 3.1598 0.24267 5.7452 0.65989 5.7452 0.92713s2.5928 0.68796 5.7619 0.93494c3.169 0.24698 5.9411 0.70438 6.1601 1.0164 0.21906 0.31206 1.8175 0.56739 3.5522 0.56739s3.337 0.261 3.561 0.58c0.22393 0.31899 2.8388 0.7806 5.8106 1.0258 2.972 0.24519 5.559 0.66724 5.7489 0.93789 0.19 0.27065 2.9401 0.69431 6.1114 0.94146 3.1712 0.24715 5.9242 0.67488 6.1176 0.95049 0.19347 0.27562 2.9446 0.70321 6.1137 0.95018 3.169 0.24699 5.7619 0.70453 5.7619 1.0168s1.3926 0.56771 3.0949 0.56771c1.7021 0 3.434 0.29867 3.8487 0.66371 0.41468 0.36504 4.1569 0.83338 8.3161 1.0408 8.3821 0.41792 10.372-0.12039 13.17-3.5619 1.4837-1.8256 6.079-6.5057 12.05-12.272 1.877-1.8129 3.4154-3.5116 3.4187-3.775 3e-3 -0.26338 1.3824-1.7207 3.0648-3.2386 3.9324-3.5478 10.082-9.7529 10.856-10.953 1.1102-1.7225-0.0502-2.7549-3.0965-2.7549-1.5958 0-2.9014-0.25955-2.9014-0.57678s-2.753-0.77868-6.1176-1.0254c-3.3648-0.24676-6.1176-0.70008-6.1176-1.0074s-1.0526-0.56317-2.3391-0.56861c-1.2865-0.0054-4.2824-0.42301-6.6575-0.92792s-5.3519-0.92818-6.615-0.9406c-1.2631-0.01241-2.4834-0.28856-2.7115-0.61366-0.22819-0.3251-3.0074-0.79018-6.176-1.0335-3.1686-0.24335-5.9181-0.66608-6.1099-0.93941-0.19188-0.27333-2.7805-0.69757-5.7524-0.94276-2.972-0.24519-5.5799-0.69706-5.7955-1.0042-0.21558-0.3071-1.8112-0.55836-3.5458-0.55836s-3.337-0.261-3.561-0.58c-0.22392-0.319-2.8388-0.78061-5.8106-1.0258-2.972-0.24519-5.5589-0.66725-5.7489-0.9379-0.18999-0.27065-2.9401-0.69431-6.1114-0.94146-3.1712-0.24715-5.9242-0.67487-6.1176-0.9505s-2.9446-0.7032-6.1136-0.95018-5.7619-0.70452-5.7619-1.0168c0-0.31224-1.4383-0.56771-3.1963-0.56771-1.7579 0-3.3755-0.25533-3.5946-0.5674-0.21906-0.31207-2.9912-0.76947-6.1601-1.0164s-5.7619-0.6708-5.7619-0.94182-2.753-0.69466-6.1176-0.94143c-3.3648-0.24676-6.1176-0.68262-6.1176-0.96856s-2.753-0.7218-6.1176-0.96856c-3.3648-0.24676-6.1176-0.70008-6.1176-1.0074s-1.2764-0.55872-2.8365-0.55872c-1.56 0-3.0104-0.24778-3.223-0.55063-0.21259-0.30284-2.979-0.74973-6.1475-0.99308-3.1686-0.24335-5.9299-0.68293-6.1361-0.97685-0.20633-0.29392-3.1269-0.7362-6.4901-0.98286-3.3633-0.24666-6.115-0.69989-6.115-1.0072s-1.0296-0.55872-2.288-0.55872c-1.2584 0-3.3304-0.33186-4.6044-0.73746-3.1332-0.9975-6.621 0.23406-7.2506 2.5602-0.24747 0.9143-0.70915 1.9555-1.0259 2.3137s-0.80343 2.8612-1.0814 5.5622c-0.27799 2.7009-0.78383 5.0623-1.1241 5.2474-0.34025 0.18514-0.61865 1.4436-0.61865 2.7965s-0.30212 2.6242-0.67136 2.8252c-0.36924 0.20092-0.89689 2.6415-1.1725 5.4235-0.27564 2.782-0.78322 5.0582-1.128 5.0582-0.34473 0-0.62679 1.6612-0.62679 3.6915 0 4.9764 1.4786 6.2206 8.103 6.8181 2.6686 0.24071 4.8521 0.64406 4.8521 0.89631 0 0.25226 2.113 0.64925 4.6955 0.8822 4.9147 0.44331 7.5399 1.7254 7.5399 3.6822 0 1.5507-2.7253 2.0118-8.7837 1.4862-5.9726-0.51815-6.3032-0.28562-6.3195 4.4438-0.01324 3.8582 1.7808 5.9809 5.0551 5.9809 1.1722 0 2.1311 0.25955 2.1311 0.57678s2.7578 0.77903 6.1283 1.0262c3.3705 0.24719 6.2877 0.67636 6.4823 0.95371 0.19469 0.27734 2.7856 0.70487 5.7575 0.95007 2.972 0.24519 5.5799 0.69706 5.7955 1.0042 0.21557 0.3071 1.8303 0.55836 3.5883 0.55836s3.1963 0.25547 3.1963 0.56771 2.5928 0.76978 5.7619 1.0168c3.169 0.24698 5.9201 0.67456 6.1136 0.95018 0.19349 0.27562 2.9446 0.7032 6.1137 0.95018s5.7619 0.6708 5.7619 0.94181c0 0.27103 2.753 0.69467 6.1176 0.94143 3.3648 0.24677 6.1176 0.6795 6.1176 0.96164 0 0.28213 1.3765 0.66774 3.0589 0.85691 8.5703 0.96365 13.966 1.7789 14.963 2.2607 0.60962 0.29469 3.7674 0.74304 7.0173 0.99632 3.2499 0.25329 5.909 0.68728 5.909 0.96443 0 0.27714 1.3765 0.66256 3.0589 0.85649 6.6523 0.76679 14.612 2.0139 15.294 2.3962 0.39584 0.22184 3.1488 0.60994 6.1176 0.86244s5.7395 0.70126 6.157 0.99724c0.41752 0.29598 3.4134 0.73304 6.6575 0.97123 3.2441 0.2382 5.8984 0.67724 5.8984 0.97565s1.2308 0.54256 2.7349 0.54256c1.5043 0 3.0426 0.26482 3.4187 0.58848 0.826 0.71094 4.0491 1.0756 10.703 1.2111 3.7457 0.0762 5.3079-0.15875 6.2977-0.9473zm-141.91-10.28c0-2.7134-0.33951-4.6061-0.89966-5.0154-0.4948-0.36153-3.2478-0.861-6.1176-1.11l-5.2181-0.45266v10.936h12.235z" style="paint-order:fill markers stroke"/>
  <path d="m85.543 28.356c-3.2794 0.29379-4.0033 0.45156-6.611 1.1552l-5.6071 1.3486-3.6579 1.5315-3.4044 1.3486-4.1608 2.6867c-1.4209 0.81523-7.1181 4.3539-8.4549 6.5775-1.3341 1.3453-2.1679 2.8434-3.7096 4.0387-0.64864 1.5554-2.2899 2.5944-2.5207 4.2225l-1.984 2.7435-1.5328 3.3903-1.0984 4.3389c-0.88709 3.9309-1.0469 8.0879-0.50495 12.035 1.1476 2.9288 6.7996 2.0972 7.0395-1.0073l0.95324-6.8042 1.328-4.773 1.6322-4.0746c0.51796-0.8808 1.0323-1.8873 1.4462-2.9151l3.5545-4.2181c2.4974-3.3614 6.1907-6.0263 9.6953-8.4319l3.4581-1.6864 5.9222-2.3375 5.3954-0.94427 6.9192-0.92326c3.036 0.1475 6.243-2.0856 5.2224-4.9594-1.1443-3.3062-5.3996-2.2688-9.3196-2.3419z" style="paint-order:fill markers stroke"/>
  <path d="m87.093 44.487c-2.5177-0.29321-4.4501 0.99245-6.8376 1.0738-1.3207 0.78659-2.9217 1.061-4.146 2.0592-1.2715 0.29163-2.0014 1.1456-3.2891 1.5166-0.83712 1.2485-2.7153 1.1909-3.2573 2.621-2.2932 2.3451-5.1847 4.5135-6.3585 7.3826-1.2744 1.1742-1.0934 3.1901-2.3187 4.577-1.6317 3.2624-1.9003 7.3346-0.35424 10.646 2.6092 2.7619 8.1816 0.37227 7.4669-3.1557-0.34144-2.3416 1.2963-4.2287 1.2544-6.5486 0.80281-1.8307 1.9851-3.5265 3.2981-4.9795 1.8607-2.6723 5.1565-4.7587 8.4091-6.034 1.472-0.30442 2.4285-1.4489 4.1479-1.3188 2.4145-1.1319 5.1557-0.69025 7.7104-1.4081 3.4096-1.0643 2.6521-6.313-1.155-6.2686-1.5118-0.19411-3.0467-0.17334-4.5704-0.16278z" style="paint-order:fill markers stroke"/>
  <path d="m92.273 60.622c0 1.7811-4.0024 0.24978-5.6866 0.95564-3.8007 1.3808-4.3895 5.4016-7.5071 15.498-2.6495 9.2185-6.6765 20.076-7.3581 23.733-0.58951 2.8694 0.1322 5.0555 0.86694 7.2901 2.4502 3.5717 4.2452 4.5188 8.7343 5.9092 1.7547 0.54041 2.5852 1.1095 2.2135 2.5703-0.2219 1.5935-1.4182 3.0867-0.98405 4.8867-0.01364 1.8989 0.96308 3.493 1.7425 5.1808 2.6137 3.5315 6.6207 6.3679 11.548 6.4777 2.3165-0.11886 5.2936 0.77693 4.9133 3.2231 0.15811 4.3912 0.54633 8.8701-0.46021 13.138-0.95824 0.9738-1.7719 2.1157-2.2355 3.2476-1.0906 1.5618-2.3178 3.0196-2.5764 5.8844-0.27457 3.3809-0.13663 4.4493 1.8657 7.3651 0.11017 0.88595 2.0645 2.6336-0.16301 2.3874h-70.232c-0.29003-4.5508-3.4629-9.3874-8.4409-10.976-3.7608-1.5079-8.3358-0.68886-12.419-0.83994-2.0746 0.0114-5.4343 0.26356-5.4903 2.6882-2.213 1.4934-0.92355 4.6374-1.4135 6.7796-0.084989 18.837-0.40054 37.688 0.20876 56.518-0.21073 1.5975 1.4004 2.2886 1.7425 3.6939 2.0875 1.8662 5.7041 0.87144 8.3922 1.2722 4.1215-0.0391 8.7719 0.53326 11.935-2.1771 1.888-1.544 4.0133-3.2856 4.5196-5.5545 1.3929-4.0041 0.49793-8.4588 0.80988-12.629 0.0978-2.3374-0.08045-4.836 0.29245-7.0702 20.337-0.73188 40.793-0.15286 61.179-0.40049 4.6279-0.23232 9.4388 0.34399 13.958-0.63741 3.3826-1.1072 0.61709-0.1888 3.3826-1.1072 7.6076-2.9174 11.27-7.6195 12.008-13.514 0.591-2.8992-0.123-6.2017 0.5288-8.9141 1.2564-0.38414 0.89672-0.90435 3.46-1.1727 3.567-1.84 5.7956-2.5559 7.8006-6.0397 1.442-2.68 2.5113-4.5412 2.1533-6.1001 0.0952-2.6394 0.43435-5.5864-1.4522-7.8018-0.1062-1.6389-1.9009-2.5528-2.3458-4.1604-1.3687-2.1829-0.39045-5.0478-0.71136-7.4745 0.3578-1.3327-0.60035-3.5715 0.68751-4.3625 2.1312-0.31102 3.5967 1.684 5.8466 1.2751 2.9118-0.0828 5.4652 1.4623 8.4899 1.2626 2.7103 0.197 91.531 14.209 93.183 15.468 2.2849 0.4604 4.6651 0.16307 6.8039 1.0633 2.17 0.0125 4.0897 0.35761 6.0813 0.95477 3.2199-0.20424 6.0194 1.3461 9.2759 0.96089 2.3167 0.11006 4.3256-0.72606 6.2979-1.5945 2.7249-1.9041 5.6215-4.242 6.3217-7.2732 0.0368-1.5002 1.4345-2.7269 1.0328-4.3932-0.0634-2.0865 1.449-3.8684 1.0646-6.0367 0.35332-1.7595 1.9375-3.2011 1.4801-5.1589 9e-3 -1.9496 1.4507-3.6326 1.0278-5.6997 0.29444-2.1253 1.3374-4.1258 1.0864-6.3675 1.4754-2.1119 0.45115-4.865 1.7693-7.0658 0.26186-2.1839 0.93806-4.2183 1.7037-6.2458 0.13558-1.7133 6.89-8.384 9.1996-10.11 2.5747-1.875 3.1654-6.8503-0.90172-7.5273-1.924-0.37499-3.7716-0.32654-5.4849-1.1298-2.1498-0.1799-4.3954-0.0058-6.2085-1.1814-2.2069-0.46313-4.5078-0.09697-6.5166-1.0589-2.3025-0.0089-171.26-28.227-175.62-27.918-0.46589-0.0059-1.3975-0.40176-1.3975 0.0084zm1.2892 6.8707c1.7054 0.16338 3.1921 1.2808 5.1012 0.94164 2.7141 0.15524 177.93 28.61 179.44 29.421-0.40448 2.691-3.8834 3.9678-5.123 6.3097-1.2142 0.49777-2.1948 1.1126-2.472 2.3664-2.1938 2.8867-5.5572 4.8156-7.5623 7.8228-2.2445 1.6367-3.5708 3.9352-5.801 5.6717-2.0499 2.3267-4.145 4.567-6.5882 6.6212-1.7413 2.3623-4.0096 4.8602-7.1696 5.5326-3.5961 0.14913-7.3322 0.4252-10.694-0.69398-2.9376 0.28036-86.92-14.072-89.467-14.09-1.8104-0.87155-4.0107-0.66167-5.9749-0.96702-1.9088-2.1233-5.5803-0.41962-7.948-1.8343-2.306-0.24618-4.5992-0.17313-6.7184-1.0283-3.1598-0.78998-7.5756 1.5963-6.0196 4.7677 0.50293 2.562 4.4414 2.5125 6.7303 3.0866 2.445 0.0855 4.3697 1.648 6.9451 1.2392 2.2089 0.24484 4.2723 1.1827 6.619 0.92064 2.2544 0.66892 4.6694 0.92595 7.0692 1.0458 2.1793 1.3708 87.508 15.347 90.738 15.047 2.0813 0.45708 4.2092 1.2208 6.5106 0.86113 1.9934-0.0902 3.5926-1.0277 5.5842-1.1097 1.9143-1.4316 4.2924-2.5283 6.2671-3.9101 2.143-1.6477 3.2624-4.1512 5.5445-5.6105 1.7814-2.5704 4.7637-4.4175 6.4928-7.0142 0.84542-0.54541 2.996-3.221 2.6997-0.77799-0.0879 1.6527-1.3959 3.0815-1.0526 4.8701-0.77075 2.0889-1.7561 4.1639-1.5029 6.4567-0.96932 1.8779-0.96035 4.0316-1.2167 6.1146-1.4125 1.9845-0.19916 4.6081-1.641 6.5906-0.0936 1.6022-0.27215 3.1967-1.5894 4.3923-1.0839 1.5101-3.9268 0.71551-5.6916 1.0531-3.2525 0.35966-6.0866-1.1621-9.2948-1.2028-1.9187-1.1124-4.3185-1.0392-6.5663-1.2234-2.2153-1.3826-5.3165-0.15602-7.614-1.4116-2.2009-0.27939-84.199-13.392-86.298-14.024-1.8507 0.0222-3.6452-0.11702-5.1121-1.1298-2.2836-0.49001-4.6908-0.0529-6.777-1.051-2.3024-9e-3 -4.415-0.38655-6.5702-0.95653-2.9394 0.28627-5.4058-1.2025-8.3357-0.98714-2.5045-0.38077-4.9502-1.2063-7.5355-1.5122-2.2128-1.3783-5.364-0.14802-7.6865-1.4011-2.2566-0.30556-4.5333-0.0386-6.5374-1.0274-1.8797-0.0129-3.9471-0.26091-4.5803-2.0163-1.5791-1.8148-0.3476-4.5496-0.25048-6.6545 0.69437-1.2764 2.1872-0.26125 4.2866 0.13103 3.0339 0.65384 8.3855 1.5527 9.0646-0.60885 3.4647-3.2631-0.87381-6.7202-4.5625-6.1986-2.4217-1.2641-5.5228-0.38967-7.9788-1.542-2.1164-0.24711-4.2152-0.18225-6.133-1.0292-3.2137 0.32284-6.0851-2.4572-5.3466-5.2666-0.28333-1.627 8.4722-34.741 10.623-34.822 0.56004-0.09118 1.1279-0.15231 1.6977-0.1619zm16.983 68.159c2.2347 0.38977 4.409 1.1463 6.8079 0.95302 2.0908 0.42858 0.92961 3.2361 1.313 4.5096 1.4109 3.9449-2.2267 3.4451-5.4799 3.2835-4.2232 0.94985-5.1706-0.98439-4.4621-4.3765 0.49241-1.6148-1.3675-5.2403 1.821-4.3695zm16.209 13.752c0.0654 0.0395-0.21169-0.0741 0 0zm-12.595 2.3795c1.3464-0.0913 2.2182 1.155 3.6519 0.92677 1.118 1.0452 4.3719 1.1031 4.2592 3.0595 0.94684 0.91305 0.57664 2.1436 1.0994 3.294 0.53036 1.5406-0.32589 2.6781-0.92938 3.9521-0.069 2.2432-2.5088 3.8436-4.5922 4.5656-2.0647 0.97981-4.8146 1.647-6.8178 0.23015-3.1726-0.61473-5.569-3.2163-6.1568-5.8572-1.2117-1.575-0.40998-3.6736 0.55465-5.2053 0.64281-2.6024 3.5821-4.0695 6.3328-4.4194 0.59837-0.75616 1.6739-0.497 2.5983-0.54608zm-10.389 6.6703c-0.0983 0.0268 0.0368-0.0146 0 0zm-90.92 5.0381c1.8127 0.22019 4.3757 0.98583 5.0464 2.6062 0.83583 3.2894 0.86305 6.6609 0.83605 10.058-0.03491 13.795 0.31608 27.638-0.61042 41.388-0.82505 2.4266-3.7337 3.4564-6.3138 3.0262-4.5257 1.206-2.335-3.4783-2.81-5.8248 0.07545-17.048 0.15148-34.095 0.22763-51.143 1.2075-0.0394 2.415-0.13199 3.6241-0.11027zm54.97 12.038c13.874 0.0677 27.793-0.0845 41.629 0.36581 0.41897 2.1437-0.17087 3.0414-0.22729 6.6026 0.0457 4.0265-4.012 7.1722-7.9005 8.8768-2.3843 0.43569-4.6524 0.98337-7.1836 0.79024-22.428 0.30263-44.903 0.12769-67.349 0.1759 0.16802-5.4402-0.35122-11.255 0.3807-16.462 13.505-0.60452 27.106-0.23023 40.651-0.34918z" color="#000000" style="-inkscape-stroke:none;paint-order:fill markers stroke"/>
  <path d="m93.628 60.141c-0.44767-0.0045-0.88727 0.0046-1.3155 0.0078-2.116-0.13355-4.7031 0.87573-6.467 1.6139-1.6273 0.98626-3.6147 3.768-5.2474 8.0091-3.833 9.9574-6.9278 25.457-7.5568 26.688-0.03095 0.05951-0.04757 0.12401-0.04881 0.18945-0.02323 1.9436-0.35338 3.7243-1.0604 5.5098-0.0086 0.0229 0.0047-0.0239 0 0-0.34408 1.6821 0.0087 3.5443 1.016 4.8711 1.014 3.7074 9.768 7.1095 10.12 7.7704 0.35726 0.66994 0.26158 0.97865 0.18964 1.6156-0.16199 1.4339-0.55148 2.2848-0.7763 3.7841-1.0375 5.9632 8.1922 13.283 13.347 13.398 0.01481-1.3e-4 0.02961-8e-4 0.04436-2e-3 1.0664-0.0547 2.3078 0.13927 3.1635 0.58594 0.85573 0.44667 1.3502 1.0489 1.1868 2.0996-4e-3 0.0265-6e-3 0.0533-4e-3 0.0801 0.15804 4.3896 0.52633 8.814-0.4459 12.98-0.93214 0.97768-1.7501 2.0872-2.2184 3.2305-1.0949 1.5898-1.91 3.3967-1.7814 5.4551 0.03967 2.5917-0.25467 5.8496 1.8679 8.51 1.133 1.4202 0.04215 1.3689 0.04215 1.3689-0.08548 9e-3 -0.21406 0.0161-0.43037-8e-3 -0.02207-3e-3 -0.0443-4e-3 -0.06655-4e-3h-69.791c-0.4708-4.5821-3.6188-9.3099-8.6783-10.936-3.9734-1.5845-8.6215-0.7317-12.601-0.8789-0.00887-2e-4 -0.017748-2e-4 -0.02662 0-1.0603 6e-3 -2.4665 0.0625-3.6891 0.46875-0.6113 0.2031-1.1848 0.49928-1.6172 0.94336-0.38052 0.39073-0.56538 0.93675-0.63224 1.5312-1.1323 0.87271-1.4244 2.134-1.4398 3.3594-0.016111 1.289 0.16806 2.5967-0.048805 3.5449-0.00709 0.0302-0.010802 0.061-0.011097 0.0918-0.084974 18.833-0.40121 37.69 0.20852 56.533l0.00444-0.0684c-0.12453 0.94402 0.31347 1.6648 0.75204 2.2383 0.43856 0.57347 0.8597 1.0402 0.99828 1.6094 0.020989 0.0884 0.070249 0.16976 0.14198 0.23438 1.1864 1.0606 2.7901 1.2903 4.3414 1.3262 1.5513 0.0358 3.1133-0.1037 4.3459 0.0801 0.031531 4e-3 0.063455 6e-3 0.095391 6e-3 2.0303-0.0193 4.2402 0.1172 6.3801-0.0899 2.1399-0.20705 4.2335-0.7729 5.9231-2.2207 1.8818-1.539 4.1081-3.33 4.6653-5.7871 1.4293-4.144 0.52236-8.6264 0.82747-12.705 7.5e-5 -5e-3 7.5e-5 -9e-3 0-0.0137 0.09355-2.2357-0.01473-4.5466 0.27064-6.6191 20.148-0.70412 40.434-0.14871 60.671-0.39453 0.0074-5.3e-4 0.01481-1e-3 0.02218-2e-3 4.5562-0.22872 15.055-1.339 15.648-1.4941 0.50992-0.13341 3.5821-1.2906 4.257-1.8223 0.70141-0.55249 1.3154-1.0948 2.0542-1.3262 0.0324-0.0104 0.0636-0.0235 0.0932-0.0391 2.0069-1.0483 7.7743-17.095 8.3057-19.631 0.16452-0.74611 1.145-1.1035 2.5875-1.3383 2.6262-0.80303 4.3777-1.9565 5.3571-2.8332 2.7142-2.4814 4.618-5.842 4.9724-7.126 0.184-0.6665 0.30114-1.0284 0.51313-2.435l9e-3 0.10352c0.20673-3.3674 0.20013-6.6297-2.5978-10.186-0.51367-0.65283-1.0271-1.2229-1.2157-1.9043-0.0114-0.0409-0.0282-0.0803-0.051-0.11718-0.60997-0.97279-0.71369-2.1418-0.68105-3.4062 0.0326-1.2644 0.0333-6.9921 0.1087-7.2598 0.0602-0.21267 0.17504-0.32669 0.30615-0.43945 0.80584-0.0714 123.16 20.217 124.68 20.532 1.4945 0.31081 3.0635 0.60936 4.7784 0.41992 2.4646 0.10768 4.5654-0.77126 6.5354-1.6387 0.0331-0.0147 0.0642-0.0324 0.0931-0.0527 2.7474-1.9199 5.7681-4.3161 6.5154-7.5508 7e-3 -0.0277 0.0102-0.0558 0.0114-0.084 0.0153-0.62337 0.33281-1.2535 0.64554-1.9766 0.31275-0.72311 4.1864-18.258 3.9515-19.406l5e-3 0.14062c0.27442-1.9809 1.2747-3.99 1.0715-6.3164 0.73853-1.1404 0.87067-2.3913 0.96057-3.5762 0.0935-1.232 0.1763-2.3935 0.76534-3.377 0.0319-0.0528 0.0522-0.11046 0.0599-0.16992 0.25537-2.1298 0.91778-4.1298 1.6793-6.1465 0.0144-0.0379 0.0234-0.0773 0.0266-0.11718 0.11403-1.441 6.8117-8.1364 9.0044-9.7773l5e-3 -0.0039c1.4491-1.0579 2.272-2.8766 2.2295-4.5859-0.0212-0.85559-0.26778-1.6928-0.82081-2.3789-0.55148-0.68416-1.4163-1.198-2.5489-1.3887-2.0017-0.38919-189.42-31.617-193.98-31.297zm193.76 32.225c6e-3 7.53e-4 0.0118 0.0014 0.0177 2e-3 0.89616 0.14917 1.4794 0.51204 1.879 1.0078s0.60578 1.1443 0.62337 1.8516c0.0352 1.4145-0.7208 3.0203-1.8434 3.8379l-7e-3 0.0039c-2.4235 1.8114-3.786 4.3008-5.8078 6.0625l0.071-0.0527c-1.5352 0.93791-3.4943 2.4421-3.6514 4.4277l0.0266-0.11523c-0.76613 2.0288-1.4483 4.0903-1.7193 6.3164-0.65388 1.178-0.74707 2.437-0.83632 3.6133-0.0928 1.2228-0.2113 2.3472-0.86518 3.2832-0.0618 0.0882-0.0892 0.19177-0.0777 0.29492 0.23361 2.0867-0.77677 4.0384-1.0848 6.2617-7e-3 0.0474-6e-3 0.0955 5e-3 0.14257 0.18799 0.91901-3.6024 18.218-3.8972 18.9-0.29491 0.68186-0.69282 1.4161-0.71433 2.293l9e-3 -0.084c-0.65 2.8137-3.3998 5.082-6.0895 6.9648-1.9455 0.8555-3.8386 1.6267-5.9719 1.5254-0.034-2e-3 -0.0682-2e-3 -0.102 2e-3 -1.5136 0.17905-2.9532-0.0916-4.4567-0.4043-1.5036-0.31269-123.97-20.763-125.24-20.578-0.079 0.012-0.1541 0.0393-0.21962 0.0801-0.4454 0.27357-0.69624 0.68535-0.81415 1.1016-0.11791 0.41621-0.10575 6.1464-0.14005 7.4668-0.0202 0.78239 0.0591 1.5666 0.23958 2.3359-0.0124 3.7e-4 -0.13072 4e-3 -0.13088 4e-3 -9e-5 1e-5 -0.16412 0.0488-0.16416 0.0488 0 0 0.0307 0.0495 0.0421 0.0684 0.0285-0.0184 0.0577-0.0391 0.0577-0.0391-9e-5 4e-5 0.11324-0.0371 0.11313-0.0371-1.7e-4 4e-5 0.0578-6e-3 0.0954-0.01 0.0327 0.13584 0.10314 0.26441 0.14642 0.39843-0.0957 0.0179-0.20188 0.0391-0.20188 0.0391 7.7e-4 4e-3 0.0887 0.46681 0.0887 0.46679 1.6e-4 -2e-5 -0.13784 4e-3 -0.13755 4e-3 6e-4 5e-5 -0.0669-9e-3 -0.0798-0.0117-2e-3 -6e-4 -2e-3 -1e-3 -5e-3 -2e-3l-0.091-0.041c-8e-3 -5e-3 -0.0174-9e-3 -0.0577-0.043-0.0102-8e-3 -0.0402-0.0354-0.04-0.0351 2.6e-4 2.7e-4 -0.0601-0.0803-0.0599-0.0801 3e-5 5e-5 -9e-3 -0.0177-0.0177-0.0352-0.0119 7e-3 -0.0554 0.0312-0.0554 0.0312 8e-5 1.2e-4 0.0952 0.0995 0.0954 0.0996 3.8e-4 3.1e-4 0.0575 0.0393 0.071 0.0469 0.0135 8e-3 0.0216 0.012 0.0289 0.0156 0.0292 0.0144 0.042 0.019 0.0577 0.0254 0.0312 0.0128 0.0513 0.0216 0.11097 0.0391 0.0149 4e-3 0.0309 0.0102 0.0732 0.0176 0.0211 4e-3 0.10586 0.01 0.10643 0.01 3.3e-4 0 0.13065-0.0156 0.13088-0.0156 1.1e-4 -2e-5 0.11301-0.0351 0.11312-0.0352 4e-5 -1e-5 0.0253-0.017 0.0444-0.0293 0.0814 0.18678 0.0998 0.3853 0.20854 0.56641 0.26304 0.90542 0.86521 1.5848 1.3665 2.1992 0.50884 0.62358 0.90145 1.1689 0.94504 1.8418 6e-3 0.0933 0.0428 0.18299 0.10642 0.25781 1.7305 2.0322-4.8627 17.449-8.3343 19.242-1.4157 0.17679-2.2982 0.81168-3.3742 1.1406-0.1775 0.055-0.30954 0.1875-0.34828 0.34961-0.68659 2.8572-3.4301 14.881-3.9887 15.168-0.0688 0.0351-0.12784 0.0831-0.17303 0.14062-1.1371 1.4543-2.0003 3.0739-3.6537 3.9375l0.0932-0.0391c-1.0436 0.32686-1.7501 0.99449-2.4092 1.5137s-14.55 2.8402-19.249 3.0762l0.02218-2e-3c-20.37 0.24743-40.832-0.33048-61.194 0.40234-0.25825 9e-3 -0.47242 0.17918-0.51023 0.4043-0.38488 2.306-0.20087 4.8173-0.29727 7.1211-0.31517 4.2474 0.55221 8.6563-0.78753 12.508-0.0053 0.0154-0.0098 0.0311-0.01331 0.0469-0.46143 2.0676-2.4693 3.755-4.3569 5.2988-3e-3 3e-3 -0.0059 5e-3 -0.0089 8e-3 -1.4734 1.2626-3.2844 1.7648-5.2909 1.959-2.0064 0.19413-4.1846 0.0641-6.2759 0.084l0.097609 6e-3c-1.4556-0.21702-3.048-0.0583-4.4989-0.0918-1.449-0.0335-2.6952-0.24008-3.596-1.043-0.24669-0.68591-0.66816-1.2483-1.0205-1.709-0.39981-0.52279-0.66076-0.94615-0.57457-1.5996 0.0026101-0.0227 0.0033518-0.0456 0.0022182-0.0684-0.6088-18.817-0.29348-37.662-0.20848-56.503l-0.011092 0.0918c0.27307-1.194 0.058308-2.5307 0.073207-3.7226s0.21862-2.1534 1.1402-2.7754c0.12946-0.0874 0.20696-0.22167 0.21075-0.36524 0.011771-0.51001 0.18339-0.85708 0.46143-1.1426 0.27804-0.28549 0.68523-0.50938 1.1802-0.67382 0.98991-0.3289 2.2999-0.40263 3.3143-0.40821 4.1746 0.15051 8.6557-0.62113 12.192 0.79688 0.01306 6e-3 0.02639 0.0109 0.03994 0.0156 4.7178 1.5054 7.8093 6.1802 8.0883 10.557 0.01612 0.25076 0.25157 0.44693 0.53686 0.44727 0 0 71.471-0.14241 71.636-0.32626 0.16469-0.18385-1.697-7.8131-1.7414-10.523 1.52e-4 -6e-3 1.52e-4 -0.013 0-0.0195-0.11514-1.8434 0.61308-3.4799 1.6704-4.9941 0.0189-0.0278 0.03452-0.0573 0.04659-0.0879 0.43464-1.0612 1.2157-2.1621 2.1364-3.0977 0.0598-0.0609 0.10103-0.13412 0.11979-0.21289 1.0274-4.3566 0.63011-8.8731 0.47252-13.25l-4e-3 0.0781c0.21692-1.3954-0.58901-2.4619-1.706-3.0449-1.1169-0.58305-2.5234-0.77898-3.7735-0.71484h0.04437c-4.6898-0.10454-11.763-17.563-12.299-18.049-0.53989-0.48945-1.3558-0.66923-2.2339-0.59375l0.33498 0.0684c-3.2248-1.7416-6.918-4.0762-7.7355-7.4102-0.0139-0.0585-0.04024-0.11418-0.07764-0.16407-0.82206-1.0828-1.1692-2.6607-0.87405-4.1035l-0.01997 0.0703c0.74168-1.873 1.0856-3.7567 1.1136-5.7754 0.94722-1.9733 9.2277-33.406 12.727-34.678 9e-3 -0.0031 0.01786-0.0063 0.02662-0.0098 1.6033-0.67192 198.78 30.012 200.56 30.359zm-193.83-25.346c-0.58102 0.0098-1.1521 0.07387-1.7104 0.16211-0.0017 6.4e-5 -0.0027 0.0019-0.0044 2e-3 -2.425 0.09407-4.1256 1.8659-4.1129 3.8633-0.28844 0.43254-0.34552 0.88925-0.46587 1.3438-0.12998 0.02162-0.25956 0.04297-0.25956 0.04297-4e-6 -1e-6 0.0036-0.03588 0.0044-0.04297-0.0032 0.0084-0.01762 0.04457-0.01775 0.04492-1.04e-4 1.7e-5 -2e-3 -2e-5 -0.0023 0 2.9e-5 1e-5 0.0023 2e-3 0.0023 2e-3s-0.0082 0.0195-0.0089 0.02148c2e-3 -0.0024 0.01499-0.01888 0.01553-0.01953 6.8e-5 2.5e-5 0.0022 0.0019 0.0023 2e-3 -6.8e-4 9.38e-4 -0.01707 0.02141-0.01997 0.02539-0.01927 0.05114-0.1575 0.42188-0.1575 0.42188l0.06877 0.01563 0.01775 2e-3c4.5e-5 4e-6 0.10642 0.0059 0.10648 0.0059 1.23e-4 -4e-6 0.06313-7e-3 0.07099-0.0078-0.04074 0.23573-6.6157 27.857-6.3624 29.541-0.73762 3.0423 2.2357 5.9437 5.7012 5.7402 2.0447 0.87938 17.556 3.1341 18.446 4.2714 0.87926 1.124 1.0585 2.516-4e-3 3.7129-2.3639 1.5619-10.103-0.10564-10.994-0.26758-0.44593-0.081-0.91336-0.0936-1.3576 0.0352-0.44431 0.12879-0.85291 0.42336-1.0848 0.84961-0.03112 0.0582-0.04848 0.12129-0.05102 0.18555-0.04519 0.97956-0.3737 2.1883-0.50136 3.4102-0.1249 1.1953-0.03011 2.4435 0.82524 3.4766 0.38094 0.96337 1.1799 1.5799 2.092 1.8906 0.92819 0.31616 1.9589 0.37504 2.915 0.38281 2.1295 0.95825 154.96 26.31 158.44 25.925 0.0157-1e-3 0.0311-3e-3 0.0466-6e-3 0.73814-0.1412 1.8823-0.0421 3.006-0.0762 1.1077-0.0336 2.3044-0.24919 2.9882-1.1602 1.4088-1.3125 5.2651-21.573 6.0452-23.688 0.0267-0.0731 0.0327-0.1509 0.0177-0.22657-0.149-0.77633 0.0578-1.4887 0.34607-2.2578 0.28735-0.76673 0.66077-1.5778 0.7121-2.5039 0.0373-0.31871 0.0434-0.57576-2e-3 -0.80274-0.0469-0.23306-0.16438-0.48792-0.45034-0.62695-0.28597-0.13904-0.58853-0.0844-0.79419-8e-3 -0.20565 0.0766-0.3771 0.18536-0.55015 0.30859-0.34612 0.24645-0.6908 0.5637-1.0072 0.85351-0.31636 0.28982-0.61997 0.55881-0.74982 0.64258-0.0593 0.0382-0.10915 0.0867-0.14641 0.14258-1.647 2.4735-21.703 17.331-23.451 17.41-0.0223 7.8e-4 -0.0445 3e-3 -0.0666 6e-3 -2.1161 0.33069-4.1527-0.38479-6.287-0.85352-0.0609-0.0134-0.12393-0.0174-0.18634-0.0117-1.4709 0.13648-2.8405-0.27206-4.3015-0.71094-1.4242-0.4278-105.65-17.496-106.99-17.543l0.12645 0.0176c-1.2266-0.30763-2.7661-0.43671-4.0175-0.79296-0.62571-0.17813-1.1678-0.40925-1.564-0.7129-0.39617-0.30364-0.65975-0.66909-0.76535-1.207-8e-3 -0.0363-0.0206-0.0717-0.0377-0.10547-0.68496-1.3962-0.0883-2.509 1.0782-3.3086 1.1664-0.7996 2.922-1.1613 4.3014-0.81641l-0.0776-0.0254c2.2636 0.91337 104.68 17.172 106.03 17.481 1.2755 0.29134 2.6367 0.54641 4.1151 0.45313 3.513 1.1694 7.3276 0.87317 10.91 0.72461 0.0337-2e-3 0.0671-6e-3 0.0998-0.0137 3.3803-0.71924 12.016-10.006 14.058-12.324l-0.0687 0.0644c2.3274-1.8123 3.6537-4.106 5.7878-5.6621 0.0478-0.0352 0.0884-0.0775 0.1198-0.125 1.9228-2.884 5.2711-4.8072 7.5448-7.7988 0.04-0.0519 0.0679-0.11036 0.0821-0.17187 0.23805-1.0765 1.0109-1.5514 2.1718-2.0274 0.11463-0.0475 0.20654-0.12915 0.25956-0.23047 0.55419-1.047 1.6752-1.9244 2.7686-2.8887 1.0934-0.96431 2.1732-2.0476 2.4003-3.5586 0.0281-0.18595-0.0711-0.36895-0.2529-0.4668-0.97213-0.52062-183.8-30.337-184.76-30.43-0.02285-2e-3 -0.04583-0.0026-0.06877-2e-3zm-6.5531 5.4141 0.31501-0.38281-0.0244-0.01563zm6.5287-4.4629c0.73147-0.07156 183.29 30.082 183.85 30.244-0.30325 0.96494-0.98802 1.7825-1.9056 2.5918-1.0137 0.89407-2.1709 1.8038-2.8706 3.0176-1.2046 0.51738-2.3195 1.2482-2.6222 2.6172l0.0798-0.17383c-2.0892 2.7489-5.397 4.6859-7.4894 7.752-2.3323 1.7144-3.6614 4.0001-5.7834 5.6524-0.0251 0.0195-0.0482 0.0411-0.0687 0.0644-2.0436 2.3196-10.525 11.342-13.432 11.973-3.5852 0.15005-7.2154 0.39549-10.404-0.66601-0.0793-0.0262-0.16436-0.0355-0.24846-0.0273-1.3518 0.12902-2.6276-0.14919-3.9754-0.45703-1.3478-0.30783-103.88-16.626-105.85-17.423-0.0251-0.0102-0.0511-0.0187-0.0777-0.0254-1.7803-0.4451-3.8129-8e-3 -5.2554 0.98046-1.4261 0.97772-2.2319 2.6222-1.4086 4.375 0.15669 0.71332 0.54762 1.2956 1.087 1.709 0.55527 0.42558 1.2333 0.69887 1.9411 0.90039 1.4158 0.40303 2.9907 0.53632 4.0531 0.80273 0.0412 0.0103 0.0837 0.0162 0.12645 0.0176 1.0981 0.0384 105.23 17.055 106.69 17.492 1.4027 0.42137 2.898 0.85775 4.5766 0.74609 6.6e-4 1.5e-4 1e-3 -1.4e-4 2e-3 0 2.0213 0.44413 4.2341 1.247 6.7106 0.86719 2.1435-0.11045 3.7376-1.0275 5.5371-1.1016 0.11924-5e-3 0.23317-0.045 0.32389-0.11328 1.85-1.3835 16.53-13.906 18.343-16.572 0.26834-0.18561 0.52815-0.42339 0.81858-0.68945 0.31538-0.28892 0.64938-0.59014 0.90954-0.77539 0.0231-0.0165 0.0292-0.0169 0.051-0.0312 3e-3 0.1014 0.0165 0.17095-5e-3 0.34375-1e-3 0.01-2e-3 0.0195-2e-3 0.0293-0.0385 0.72299-0.35916 1.4522-0.66108 2.2578s-0.57806 1.7006-0.38379 2.7129l0.0177-0.22461c-0.74663 2.0236-4.6557 22.309-5.8232 23.369-0.0258 0.0237-0.0487 0.0496-0.0685 0.0775-0.40563 0.56513-1.1442 0.71551-2.1541 0.7461-1.0099 0.0306-2.1701-0.1007-3.1968 0.0957l0.0466-6e-3c-3.0053 0.33231-156.19-24.975-158-25.871-0.07866-0.0389-0.16715-0.0597-0.25733-0.0606-0.91447-6e-3 -1.8457-0.076-2.5689-0.32227-0.72315-0.24631-1.2363-0.62128-1.5041-1.3633-0.01844-0.0521-0.04697-0.10098-0.0843-0.14453-0.66909-0.76893-0.76316-1.7612-0.64555-2.8867 0.11209-1.0728 0.4076-2.2191 0.48139-3.2988 0.11024-0.18354 0.23264-0.27924 0.42149-0.33399 0.20194-0.0585 0.4872-0.0652 0.80306-8e-3 0.14361 0.0443 0.03305-0.094 1.8211 0.27997 3.5878 0.75041 8.3881 0.95914 10.121-0.22137 0.0329-0.0229 0.0627-0.0491 0.0887-0.0781 1.4139-1.5419 1.3074-3.8022 0.20815-5.2075-1.0413-1.3311-17.291-3.5024-19.058-4.2828-0.09407-0.0413-0.1998-0.0574-0.30416-0.0464-2.8318 0.28448-5.4125-2.21-4.7607-4.6895 0.01523-0.059 0.0175-0.11996 0.0067-0.17968-0.25693-1.4755 6.3941-30.391 6.9325-31.082 0.06222-0.08056 0.09474-0.17603 0.09314-0.27344-0.01513-1.5366 1.2217-2.8493 3.0902-2.9199 0.02458-0.0011 0.0732-0.0078 0.0732-0.0078 0.52353-0.08524 1.5662-0.15039 1.5662-0.15039zm-6.4777 3.9902c-1.09e-4 -9e-6 -0.11964 0.0019-0.11979 2e-3 -1.62e-4 1.8e-5 -0.05526 0.0097-0.05546 0.0098-3.64e-4 7.5e-5 -0.01976 0.0055-0.03549 0.0098 0.0093-0.0024 0.05145-0.0098 0.05102-0.0098-2.12e-4 3.5e-5 0.07334-0.0078 0.0732-0.0078-6.6e-5 2e-6 0.08213 2e-3 0.08208 2e-3 0 0 0.0031-1.65e-4 0.0044 0 1.5e-5 -1.41e-4 1e-6 -0.0059 0-0.0059zm-0.23736 0.0293c-0.0068 2e-3 -0.01448 0.0028-0.01775 0.0039-0.01492 0.0053-0.0254 0.01039-0.03771 0.01563-0.01231 0.0052-0.02381 8e-3 -0.05546 0.02539-8e-3 0.0044-0.03093 0.01945-0.03105 0.01953-1.31e-4 8.4e-5 -0.06204 0.04486-0.06212 0.04492-3.9e-5 3.3e-5 -0.05765 0.06052-0.05768 0.06055l-0.01553 0.01758-0.01113 0.01563-0.03549 0.0625s0.01265 0.0037 0.01331 0.0039c0.0019-0.0065 0.0067-0.0254 0.0067-0.02539-2.4e-5 4.5e-5 0.04441-0.06646 0.04436-0.06641-8.3e-5 1.08e-4 0.05784-0.0646 0.05768-0.06445-3.25e-4 2.94e-4 0.04463-0.03357 0.05546-0.04102zm0.18413 0.45117c0.0093 0.0034 0.11008 0.03897 0.21741 0.07813-0.03099 0.12969-0.11064 0.25303-0.13311 0.38281-6e-3 9.57e-4 -0.01557 2e-3 -0.01553 2e-3 1.62e-4 -1.8e-5 -0.11768 0.0019-0.11758 2e-3 5.5e-5 5e-6 -0.11761-0.02345-0.11758-0.02344 0 0 0.16083-0.42664 0.16638-0.44141zm0.31279 0.37695c-1e-3 7.68e-4 -0.0067 0.0039-0.0067 0.0039 1.31e-4 -8.4e-5 -0.0235 0.01342-0.03105 0.01758-0.03022 0.01663-0.03666 0.01922-0.04659 0.02344-0.0099 0.0042-0.0186 0.0073-0.03105 0.01172 0.04095-0.01464 0.07969-0.03366 0.11535-0.05664zm22.215 62.232c-0.35374 0.0263-0.68246 0.14826-0.9162 0.34961-0.46748 0.4027-0.77591 7.7398 0.0666 8.7226 0.42124 0.49143 1.0621 0.81865 1.8413 0.93554 0.77914 0.1169 1.699 0.0469 2.8018-0.20117l-0.16416 0.0137c1.6067 0.0798 3.3482 0.28469 4.6964-0.12695 0.67411-0.20582 1.273-0.62947 1.5218-1.2793s-0.25433-5.9161-0.50336-6.3633c-0.24897-0.44723-0.7355-0.82372-1.3954-0.95898-0.056-0.0113-0.11364-0.0147-0.17082-0.01-2.2238 0.17917-4.32-0.53056-6.5975-0.93359-0.44197-0.1207-0.82644-0.17471-1.1802-0.14844zm0.091 0.94531c0.15677-0.0116 0.41463 0.0104 0.76978 0.10743 0.0175 5e-3 0.0352 0.01 0.0532 0.0137 2.4846 0.27943 3.8461 0.51137 6.9636 0.95898l-0.17302-0.01c0.38556 0.079 0.53884 0.21361 0.67217 0.45312 0.13334 0.23951 0.58857 5.2816 0.45043 5.6426-0.13813 0.361-0.36604 0.64241-0.83158 0.78456-0.77368 0.20507-2.6575 0.0589-4.304-0.0228-0.0552-3e-3 -0.11056 2e-3 -0.16416 0.0137-2.4931-0.0504-2.9463 0.0711-3.5162-0.38477-0.50987-0.59483-0.27129-7.3918-0.17535-7.4744 0.048-0.0413 0.0983-0.0704 0.25511-0.082zm4.5011 15.314c-0.39178 0.0198-0.89021-0.0341-1.4265 8e-3 -0.53956 0.0421-1.1707 0.23202-1.5729 0.74023l-4.0552-0.50727c-6.6853-0.83626-3.5341 9.7588-2.8351 10.667l-0.0821-0.17383c0.62624 2.814 3.1284 5.5447 6.5421 6.2188 1.0897 0.69625 2.358 0.91781 3.5849 0.80274 1.2826-0.1203 2.526-0.55325 3.5938-1.0566 1.0949-0.38205 4.8725-3.7127 4.9115-4.9824l-0.04 0.16993c0.28884-0.60976 0.66359-1.2233 0.90733-1.918 0.24373-0.69472 0.33911-1.4845 0.04-2.3535-5e-3 -0.0132-0.0102-0.0263-0.0156-0.0391 1.7079-4.8798-5.0458-6.109-5.4661-6.502-0.12518-0.11656-0.30882-0.16947-0.48805-0.14063-0.5292 0.0843-0.95172-0.0969-1.5063-0.36328-0.55455-0.2664-1.2228-0.62925-2.092-0.57031zm0.0731 0.94531c3e-3 3e-5 6e-3 -4.9e-4 9e-3 0 4.8032 0.69571 8.3635 2.5436 8.4544 6.9531 0.0143 0.69689 0.16408 1.2158-0.0377 1.791-0.0754 2.93-2.9076 6.7402-8.4565 7.123-1.0958 0.10277-4.9752-0.63522-7.4629-3.0672-1.6358-1.9672-1.3921-4.1647-1.3544-6.1687 0.0591-3.1459 4.282-6.4258 7.4442-6.6234 0.37889-0.0296 0.87269 0.0204 1.4042-8e-3zm-101.33 10.762c-1.2477-0.0224-2.4663 0.0706-3.6559 0.10937-0.28829 0.0102-0.51622 0.21864-0.51683 0.47266-0.076144 17.048-0.15304 34.095-0.22849 51.143-1.41e-5 0.0288 0.00295 0.0576 0.00887 0.0859 0.20155 0.99569-0.20605 2.7596-0.12201 4.1856 0.042017 0.71298 0.21433 1.4149 0.84521 1.8555 0.6082 0.42477 1.5085 0.45642 2.6576 0.16992 2.773 0.40784 5.8907-0.7194 6.7883-3.3594 0.01224-0.0356 0.01968-0.0723 0.02218-0.10938 0.92819-13.775 0.5752-27.626 0.61006-41.412v-2e-3c0.02701-3.4007 0.0048-6.8081-0.84742-10.162-0.0052-0.0199-0.01188-0.0395-0.01997-0.0586-0.40157-0.9701-1.3364-1.6361-2.3603-2.0898-1.024-0.45372-2.1631-0.70809-3.1191-0.82422-0.0206-2e-3 -0.04134-4e-3 -0.06212-4e-3zm-0.06433 0.94922c0.85322 0.10524 1.8899 0.34016 2.7619 0.72656 0.87195 0.38636 1.5458 0.91105 1.8191 1.5547 0.80788 3.2099 0.84321 6.5279 0.81637 9.9043-1e-6 6.7e-4 -1e-6 1e-3 0 2e-3 -0.03487 13.777 0.31036 27.584-0.60784 41.283-0.75412 2.1425-3.3392 3.0562-5.6791 2.666-0.08487-0.0142-0.17237-0.0102-0.25512 0.0117-1.0505 0.27992-1.5441 0.18358-1.7903 0.0117-0.24606-0.17185-0.40384-0.56145-0.43924-1.1621-0.070794-1.2013 0.37993-2.9519 0.10648-4.3027l0.00666 0.084c0.074775-16.895 0.15081-33.79 0.22628-50.686 1.028-0.0433 2.0457-0.10931 3.0348-0.0937zm34.682 11.082c-6.7852-3e-3 -13.571 0.0545-20.338 0.35742-0.26103 0.0112-0.47525 0.18579-0.50802 0.41406-0.74172 5.2769-0.21686 11.103-0.38378 16.508-0.0078 0.26682 0.23592 0.48674 0.53907 0.48633 22.443-0.0482 44.92 0.12697 67.357-0.17578l-0.05546-2e-3c2.6459 0.20189 4.9777-0.36509 7.3407-0.79688 0.0455-9e-3 0.0894-0.0224 0.13088-0.041 3.9682-1.7395 7.614-5.1023 7.6601-9.3008 1.6267-1.9833 1.1699-4.5794 0.75869-6.6836-0.0437-0.22118-0.25759-0.38506-0.51245-0.39258-13.854-0.45084-27.778-0.29947-41.646-0.36714-3e-3 -2e-5 -0.0059-2e-5 -0.0089 0-6.7653 0.0594-13.549-3e-3 -20.333-6e-3zm0 0.94726c6.7756 3e-3 13.561 0.0673 20.338 8e-3h0.0067c13.723 0.0669 27.474-0.0701 41.138 0.36132 0.18921 2.1689 0.34011 4.2411 0.2595 6.1326-0.3288 4.761-4.3565 6.7748-8.0949 8.428-2.372 0.43627-4.5563 0.94973-6.9436 0.76758-0.0177-1e-3 -0.03546-2e-3 -0.05324-2e-3 -22.239 0.30009-44.534 0.12949-66.804 0.17382 0.12362-5.1952-0.26801-10.633 0.35716-15.521 6.5778-0.28306 13.181-0.35072 19.797-0.34766z" color="#000000" style="-inkscape-stroke:none;paint-order:fill markers stroke"/>
 </g>
</svg>
