<svg version="1.1" viewBox="0 0 240.61 208.61" xmlns="http://www.w3.org/2000/svg">
 <g transform="translate(-7.6546 -23.74)" stroke-linejoin="round" stroke-width="11.975">
  <path d="m91.608 23.741c-26.342 0.08882-52.69-0.1688-79.029 0.28194-2.2956-0.39837-4.4946 1.3488-4.7126 3.6382-0.28938 1.2633-0.1425 2.5867 0.57859 3.646 0.34518 1.0566 0.20329 2.5982 1.3725 3.1374-0.26542 0.82334 0.33466 1.4747 0.61139 1.9926 0.2932 0.82728 0.48673 1.7214 1.2797 2.328 0.13225 1.1284 1.1259 1.7995 1.7506 2.5204 1.2974 2.4283 3.524 4.1628 5.2401 6.255-3.5502 0.67605-7.3118-0.09744-10.849 0.45854-0.26536 7.8816-0.036908 15.849-0.11324 23.763 0.66643 1.1901 2.7784 7e-3 3.659 0.74505 0.47913 17.7 0.14886 35.466 0.22355 53.191-0.02563 17.594-0.05126 35.187-0.07689 52.781-1.1689 0.71511-1.2924 2.3348-2.5984 2.7203-2.2097 1.121-0.82279 3.9789-1.2073 5.935 0.12266 4.3242-0.24604 8.7586 0.18255 13.014 2.4947 0.32933 5.2088-0.10292 7.6652 0.28094 0.25353 2.3785 0.28696 4.9064-0.20606 7.2172-2.4859 0.37925-5.0868-0.10769-7.5285 0.35272-0.26497 7.8816-0.036419 15.849-0.11324 23.763 1.2012 1.1732 3.6036 0.16228 5.2531 0.49686 78.205-0.0516 156.41-0.10362 234.61-0.15589 1.1722-1.2026 0.16402-3.6029 0.49938-5.2525-0.0911-6.2106 0.18161-12.503-0.13524-18.663-2.279-0.66796-5.1644 0.075-7.4607-0.67017-0.16991-2.3892-0.29156-4.9409 0.0476-7.2327 2.4547-0.41603 5.0372 0.0984 7.435-0.36448 0.31621-5.7555 0.15031-11.598 0.28218-17.387-0.7938-1.7706-3.0957-2.3785-3.6615-4.1714-0.49005-13.492-0.11241-27.045-0.18667-40.56 0.0618-21.882 0.12869-43.765 0.19285-65.647 1.6548 0.0213 4.3189 0.43591 3.498-2.1324-0.0502-7.2043 0.33849-14.445-0.12734-21.629-1.4125-0.93096-3.4684-0.32603-5.1052-0.58989-1.8088-0.13366-3.9941 0.18493-5.5588-0.40516 1.5242-1.7176 3.5521-3.2126 4.5006-5.3131 1.1879-0.63914 1.408-2.1161 2.3756-2.9944 9e-3 -1.0124 1.5737-1.2886 1.172-2.4653 1.1684-0.52197 0.93586-2.2299 1.7444-3.1312 0.69438-0.96368-0.14433-2.1396 0.77537-2.8472 1.2066-2.7121-0.55744-6.8818-3.9004-6.5934-22.973-0.48126-45.958-0.21129-68.936-0.30704-27.816-0.01011-55.632-0.0065-83.448-0.0061zm143.96 8.5427c0.69769 0.12747 2.1027-0.22561 2.4356 0.375-1.308 2.8442-3.5637 5.1211-5.1046 7.7543-1.3579 0.19273-1.3463 1.8285-2.4876 2.1887-1.6058 0.83493-2.4754 2.4767-4.1788 3.0656-0.93048 0.54456-2.0417 1.149-2.7166 1.8818-25.04 0.46039-50.139 0.17605-75.201 0.26547 0.0991-5.1062 0.19834-10.212 0.29765-15.319 7.6363 0.02329 15.348-0.29997 22.942 0.02599 0.41379 2.4583-0.16307 5.0618 0.32859 7.4684 2.7164 0.1536 5.6268 0.271 8.3082-0.06931 0.34306-2.4314 0.23272-4.9559 0.40965-7.4214h6.9524c0.18679 2.5419-0.13309 5.2098 0.35891 7.6757 2.6591 0.0865 5.5161 0.14442 8.1281-0.26423 0.31804-2.438 0.237-4.9555 0.40284-7.4239 2.3145 0.17108 4.8388-0.57135 7.047 0.14233 0.61576 2.3736-0.17944 5.0018 0.39295 7.3608 2.7164 0.1536 5.6268 0.271 8.3082-0.06931 0.34306-2.4314 0.23272-4.9559 0.40965-7.4214h6.9524c0.18679 2.5419-0.13309 5.2098 0.35891 7.6757 2.6591 0.0865 5.5161 0.14442 8.1281-0.26423 0.31808-2.4388 0.23707-4.9572 0.40284-7.4264 2.3748-0.06596 4.7488-0.17092 7.1244-0.20111zm-129.41 0.02723c2.0261-0.26589 1.3782 2.3657 1.4876 3.5774-0.10196 3.9233-0.1719 7.8472-0.25 11.771-24.514-0.03976-49.067 0.29614-73.558-0.05879-1.6549 0.31193-2.4928-1.4178-4.0019-1.7389-0.6214-0.91155-1.9565-1.2853-2.7166-2.198-0.89081-0.85567-2.0562-1.2911-2.5743-2.3985-1.4759-0.65897-2.0228-2.5405-3.3478-3.4257-0.771-1.5174-2.3725-2.4568-2.7203-4.2333-0.95734-1.1839 0.12869-1.297 1.1694-1.181 2.6361-0.07356 5.2726 0.03845 7.9086 0.06652 0.1866 2.5446-0.13316 5.2152 0.35891 7.6838 2.6591 0.0865 5.5161 0.14442 8.1281-0.26423 0.31804-2.438 0.237-4.9555 0.40285-7.4239 2.3145 0.17108 4.8388-0.57135 7.047 0.14233 0.61576 2.3736-0.17945 5.0018 0.39295 7.3608 2.7164 0.1536 5.6268 0.271 8.3082-0.06931 0.34306-2.4314 0.23272-4.9559 0.40965-7.4214h6.9524c0.18679 2.5419-0.13309 5.2098 0.35891 7.6757 2.6591 0.0865 5.5161 0.14442 8.1281-0.26423 0.31804-2.438 0.237-4.9555 0.40284-7.4239 2.3145 0.17108 4.8388-0.57135 7.047 0.14233 0.61576 2.3736-0.17945 5.0018 0.39295 7.3608 2.7164 0.1536 5.6268 0.271 8.3082-0.06931 0.34306-2.4314 0.23272-4.9559 0.40965-7.4214h6.9524c0.18679 2.5419-0.13309 5.2098 0.35891 7.6757 2.6591 0.0865 5.5161 0.14442 8.1281-0.26423 0.31804-2.438 0.237-4.9555 0.40284-7.4239 1.9063-0.03236 3.8281-0.11884 5.7129-0.17636zm27.845 0.07735c1.7864 0.06972 3.7392-0.1098 5.4412 0.13861 0.48831 8.9083 0.0518 17.916 0.14333 26.863-0.017 4.0629-0.0341 8.1259-0.0511 12.189-7.7072-0.02492-15.416 0.06601-23.122-0.09901-0.0743-12.995 0.12844-25.989 0.20483-38.984 5.7945-0.03779 11.589-0.10981 17.384-0.10767zm-26.394 27.162c-0.13956 1.2171 0.11019 2.7908-0.29641 3.8224-18.342 0.49045-36.76 0.19653-55.131 0.28065-11.905-0.03551-23.811 0.0029-35.714-0.18102-0.121-2.2924-0.26381-4.6555 0.06312-6.9183 30.385-0.28134 60.773-0.2004 91.159-0.29084l-0.0804 3.2871zm86.282-3.1324c15.205 0.03787 30.45-0.0276 45.629 0.23762 0.19208 2.2773 0.0193 4.5649-4e-3 6.8453-30.345 0.0021-60.69 0.15886-91.034-0.0099-0.17947-2.3633 0.0725-4.7166 0.12129-7.0804 15.096 0.0025 30.192 5e-3 45.288 0.0074zm-1.9926 15.702c14.601 0.09816 29.202 0.20584 43.803 0.37376-0.10465 34.389-0.20944 68.777-0.31435 103.17-15.611-2e-3 -31.223 0.13667-46.833-0.026-0.49836-13.664-0.12526-27.391-0.19656-41.079 0.0699-20.816 0.10948-41.633 0.2572-62.449 1.0947 0.0045 2.1894 0.0091 3.284 0.01361zm-108.68 0.09901c8.1569 0.02127 16.314 0.1194 24.469 0.26795 0.0718 2.5103-0.38726 5.1255-0.01 7.5749 5.1625 0.39301 10.703-0.18658 15.734 0.39728 0.53671 16.221 0.27679 32.511 0.37801 48.759-0.0767 7.2894 0.12123 14.648-0.21402 21.896-0.36634 1.1438-0.3331-0.90587-0.58478-1.2828-0.50323-1.6212-1.4802-3.2462-2.5934-4.3787-0.17368-1.0626-1.5051-0.999-1.7778-1.9889-1.7224-1.8076-4.0273-2.9032-6.2611-3.9375-0.14064-1.6909 0.44437-4.6329-2.2574-3.7884-2.016 0.12283-4.1425-0.24701-6.0897 0.18254-0.52563 1.3719 0.53109 3.8601-1.5693 4.19-0.65391 0.71209-1.3887 0.72874-2.2444 1.1027-0.77119 0.51228-1.3109 1.0984-2.0668 1.5303-0.36817 1.1388-1.8924 1.1829-2.3843 2.3472-0.45189 1.3438-2.0795 2.2141-2.0303 3.8051-1.2772 0.2585-0.42141 1.8583-1.2778 2.4715-0.95176 3.2146-0.91193 6.7816 0.24832 9.8921 0.61909 2.3621 2.2925 4.3436 3.7956 6.1463 0.68784 0.50779 1.3032 1.3504 2.216 1.6151 0.629 0.7629 1.5281 1.276 2.3725 1.5111 0.98672 0.79983 2.4074 0.44528 3.3855 1.2908 2.5572 0.64068 5.5384 0.8312 7.9257-0.43193 2.4396-0.44057 4.808-1.7909 6.633-3.56 1.0512-0.91266 1.7124-1.9677 2.6052-3.0056 0.82493-1.113 1.4594-3.2106 1.8564-4.0025 0.5149 4.6193 0.18017 9.4308 0.33686 14.119 0.0217 16.206 0.17715 32.44-0.20072 48.63-1.0204 0.67616-2.8806 0.0805-4.2468 0.24719-12.956-0.14167-25.913-0.21418-38.869-0.31464-0.17891-5.1776 0.13083-10.471-0.35087-15.577-2.4896-0.36497-5.3045 0.19969-7.6931-0.38861-0.19197-2.452 0.05166-4.8898 0.10953-7.3416 2.4875-0.16504 5.0994 0.191 7.5136-0.28094 0.30704-5.7336 0.14828-11.55 0.27847-17.316-0.94874-1.8296-3.4531-2.7929-3.9876-4.8496-0.49325-12.171-0.15125-24.616-0.24279-36.888 0.10992-22.793-0.10925-45.686 0.3814-68.417 2.0735-0.43811 4.5289-0.1133 6.7135-0.2271zm80.727 0.03775c5.1895 0.07519 10.49-0.1201 15.607 0.27785 0.33822 33.474 0.20828 67.003 0.0358 100.5-0.13967 1.899 0.18124 4.1797-0.24367 5.8633-1.359 1.1626-3.0801 2.4162-3.6844 4.0619 0.093 5.6867-0.18256 11.456 0.13523 17.092 2.4465 0.52063 5.2664 0.1172 7.8524 0.27845-0.0201 2.4026 0.27117 5.0306-0.31559 7.302-2.4484 0.4066-5.1019-0.0932-7.5476 0.37067-0.31418 5.127-0.14642 10.342-0.27723 15.502-14.341 7e-3 -28.684 0.22655-43.023-0.0136-0.23948-20.287-0.28104-40.613-0.0278-60.881 0.0351-0.99308 0.0509-2.8234 0.33848-0.92163 0.5327 1.8125 1.7699 3.3921 2.9424 4.737 3.5352 4.5101 9.867 6.7034 15.46 5.5235 0.90335-0.37989 1.691-0.76277 2.6677-0.77537 2.2262-0.72421 3.9066-2.4177 5.5223-3.8861 0.89623-0.38522 1.3481-1.4667 1.992-2.1584 1.0472-1.7525 2.2034-3.7713 2.5371-5.9146 0.13504-2.2658 0.72988-4.8564-0.26423-6.9684-0.53804-1.9936-1.1021-4.131-2.4492-5.815-0.57139-1.007-1.5804-1.8801-2.3502-2.5248-0.66909-1.3949-2.2885-1.8106-3.3193-2.8768-1.0539-0.34071-2.0092-0.8656-2.9734-1.4424-0.74874-1.1366 0.18511-3.0762-0.95421-3.8465-2.5433 0.12611-5.1987-0.2475-7.6739 0.18254-0.40774 1.7598 0.41871 4.1611-2.0743 4.4499-1.5186 0.7177-2.6833 1.7844-4.0347 2.7209-0.61521 0.97258-2.0729 1.3881-2.3428 2.6324-0.96137 0.48443-1.102 1.5843-1.7933 2.3762-0.72814 0.99073-0.78647 2.7282-1.2704 3.4969-0.42774-1.7134 0.0926-3.782-0.0799-5.6076 0.17594-21.836-0.13857-43.675 0.11767-65.51 1.4632-0.68581 3.9248-0.10187 5.7748-0.29579 3.3541-0.11809 6.815 0.23983 10.101-0.18255 0.31264-2.5455 0.14563-5.1824 0.2797-7.7618 5.112 0.0058 10.224 0.01155 15.336 0.01732zm-120.11 0.0019c7.8461 0.02287 15.694-0.0036 23.538 0.15408 0.37903 31.531 0.24737 63.118 0.16787 94.669-0.0668 2.8651 0.02676 5.7315-0.26502 8.5731-15.656 0.28179-31.318 0.1084-46.976 0.14666 0.10479-34.518 0.20958-69.037 0.31436-103.56 7.7401 0.0039 15.48 0.0078 23.22 0.01176zm52.056 73.762c-0.04976 0.0225-0.1436-0.14049 0 0zm47.759 3.297c-6e-5 1.1294-0.0198 3.0367 1.6436 2.948 2.2775 0.0148 4.6479 0.33701 6.8651 2e-3 0.39233-0.73108-0.20423-2.3495 0.27784-2.768 0.94172 0.62919 1.7667 1.7116 2.5272 2.3168-0.30219 0.74709 0.53649 1.3143 0.8651 1.4326-0.75788 0.85417 0.43932 1.8403-0.10705 2.8063-0.073 1.1721-0.0185 2.3808-0.76362 3.2828-0.0492 0.85503-0.69869 1.2566-1.2308 1.8942-0.24339 0.54927-0.9187 0.74376-1.362 1.2209-1.2396 0.41086-2.0742 1.4526-3.4424 1.255-1.8246 0.34919-3.6764-0.11708-5.1368-1.2276-1.1714-0.40814-1.9407-1.1646-2.2599-2.3554-1.0612-1.2926-1.5919-2.9943-1.2432-4.6628 0.43687-0.84351-0.51213-1.8656 0.50186-2.3898 0.62754-1.3673 1.6166-2.7915 2.6398-3.7506l0.16151-7e-3zm-31.154 0.0904c0.74532 0.47215 1.1998 0.89482 1.4759 1.6894 1.191 0.462 0.53232 2.1561 1.8193 2.4728 0.3021 0.7531-0.24517 2.0628-0.11036 2.9954 0.17053 1.2876-0.37259 2.348-1.0976 3.3103-0.25234 1.9368-2.6599 2.4938-3.982 3.6126-2.4489 0.93803-5.1892-0.0468-7.3694-1.2296-1.1716-1.0368-1.9101-2.5841-2.6225-3.8007-0.46596-1.6136-0.80937-3.5248 0.19122-4.9938 0.1864-1.7302 1.3821-2.9585 2.664-4.0384 1.1753 0.36062-0.51523 3.325 1.5619 2.8372 2.3322-0.12577 4.7764 0.24806 7.0402-0.18254 0.31325-0.82909 0.0744-1.8652 0.42946-2.6726zm19.613 2.1566c-0.24446 0.32945-0.53712 0.23496 0 0zm-19.588 19.417c-0.0159 0.0934-2e-3 -0.0631 0 0zm-68.616 13.282c8.8907 0.0555 17.819-0.0937 26.685 0.25434 0.88442 0.83209 1.354 1.8638 1.1012 3.125-0.36852 1.258 0.79211 4.1068-1.0517 3.8623-18.06 5e-3 -36.121 0.22992-54.179-0.0232-0.05242-1.9998-0.38546-4.3526 0.13428-6.1436 0.83481-0.0839 0.46438-1.4426 1.4895-0.96349 8.6064-0.10994 17.214-0.10143 25.821-0.11139zm168.07 0.14605c8.8156 1e-3 17.631 3e-3 26.447 4e-3 2.1654 1.2456 1.0177 3.9199 1.1578 5.9003 0.23667 2.3269-3.2859 0.72853-4.8106 1.2164-16.633-6e-3 -33.272 0.41049-49.902 0.0535-1.1035-0.014-0.32612-1.7084-0.60396-2.4579-0.0199-1.6856-0.32463-4.5026 1.9189-4.7214 8.5976 2e-3 17.195 3e-3 25.793 5e-3zm-176.58 15.763c9.3994 3e-3 18.799 0.0661 28.198 0.0984 0.38006 2.4367 0.05807 4.9338 0.0724 7.3905-13.046-5e-3 -26.131 0.24162-39.155-0.0545-0.34094-2.2788-0.46716-4.6729-0.23577-6.9845 1.823-0.75781 4.1451-0.2194 6.1701-0.42683 1.6499-0.0175 3.2999-0.0167 4.9499-0.023zm163.96 0.0148c10.786 0.0536 21.573 0.13812 32.358 0.30322 0.0317 2.3445 0.0893 4.7718-0.16523 7.052-9.1982 0.53715-18.44 0.161-27.655 0.26542-3.7819-0.14123-7.6641 0.23526-11.39-0.37619-0.55273-2.2429-0.39581-4.766-0.0186-7.0155 2.2532-0.36897 4.595-0.15986 6.8713-0.22896zm-127.69 19.761c-0.01971 1.9466 0.52822 4.4718-2.2958 3.5603-17.474-0.0505-34.955 0.32574-52.424-0.0764-1.1027-0.0357-0.32946-1.8151-0.55726-2.6039 0.30215-1.341-0.61213-3.9596 0.73052-4.2512 18.208-0.0526 36.416-0.10518 54.624-0.15782l-0.07797 3.5291zm140.18-3.3682h27.657v6.9239c-18.232 3e-3 -36.561 0.43109-54.735 0.0749-0.86893-0.16533-0.26116-1.8478-0.49922-2.6094 0.1562-1.3766-0.48663-3.5674 0.24427-4.3893h27.333z" style="paint-order:fill markers stroke"/>
  <path d="m195.73 79.999c-0.14262 2.5979-0.28328 5.3501 0.15471 7.9425 1.7004 0.90276 3.9408 0.26516 5.8292 0.47896 2.3968 0.75178 2.9244-1.044 2.5068-3.0347-0.2945-1.769 0.60527-4.2131-0.48096-5.5625-2.65 0.10247-5.4277-0.24101-8.0098 0.17576z" style="paint-order:fill markers stroke"/>
  <path d="m219.81 79.999c-0.13676 2.6023-0.29557 5.3665 0.16894 7.9592 1.686 0.88179 3.8937 0.18639 5.7582 0.35265 2.576 0.77988 2.6678-1.4848 2.4734-3.3877-0.26535-1.6154 0.73137-3.9336-0.39002-5.1066-2.6459 0.13266-5.4363-0.25423-8.0105 0.18255z" style="paint-order:fill markers stroke"/>
  <path d="m219.81 95.841c-0.13767 2.7204-0.28506 5.6431 0.0693 8.328 2.6655 0.10312 5.5359 0.14634 8.1572-0.25743 0.16989-2.662 0.40933-5.5007 0.11015-8.1318-2.6893-0.19024-5.5613-0.22222-8.2364 0.01395z" style="paint-order:fill markers stroke"/>
  <path d="m199.99 95.728c-1.5534 0.30173-4.8712-0.85722-4.2413 1.8443 0.0686 2.1777-0.34951 4.4528 0.026 6.5691 2.6893 0.19024 5.5613 0.22222 8.2364-0.014 0.51108-2.4904 0.0581-5.3594 0.21348-7.9885-0.65021-1.1247-3.1062-0.135-4.2345-0.41089z" style="paint-order:fill markers stroke"/>
  <path d="m211.85 107.7c-1.5 0.15768-2.7253 1.1455-3.4394 2.3917-0.97311 0.69043-0.49985 2.1518-0.85891 2.896-1.3842 1.281-3.7605 0.42066-5.1207 1.776-1.9717 0.36104-3.8762 1.8243-4.7698 3.505-0.77156 0.93503-0.93534 2.2634-1.5668 3.31-0.63858 5.9851-0.3272 12.053-0.34407 18.068-0.0431 2.2827 0.78949 4.6434 2.1269 6.3808 0.52379 1.2873 1.9198 1.8309 2.8651 2.6145 0.47107 0.82607 1.4501 0.2834 2.0012 0.95854 1.2815 0.70345 3.0335 0.36469 4.1992 0.92388 1.1487 1.1289 0.59384 3.0816 1.94 4.1745 2.2462 2.9748 7.5693 0.75854 7.409-2.8447 0.30125-0.96764 0.9848-1.6796 2.0526-1.5668 1.626 0.0165 3.0566-0.77274 4.4647-1.4542 1.6777-0.95795 3.0829-2.4028 4.2519-3.9752 0.15507-1.2374 0.92363-2.0536 0.95668-3.3738 0.20316-6.3926 0.50317-12.822 0.0526-19.207-0.21219-1.5783-0.92974-3.1365-2.0043-4.2209-0.42366-1.2651-1.7349-1.9825-2.6906-2.664-0.39005-0.98056-1.6314-0.47501-2.3515-1.1374-1.6514-0.74708-4.2823 0.13782-4.7376-2.3131 0.0263-1.2262-0.83218-2.2163-1.5062-3.1287-0.85512-0.59266-1.8789-1.0629-2.9301-1.1139zm0.38861 12.433c0.51888 1.0068 1.652 1.1038 2.5322 1.4994 0.81754 0.0444 1.5163 0.95665 2.4827 0.63429 1.4934-0.62249 2.5012 0.95689 2.3676 2.2853 0.075 5.4271 0.22541 11.038-0.17884 16.357-1.2836 1.1851-3.377 0.64719-4.6572 1.6423-1.2859-0.41722-2.1692 1.7466-3.2896 0.85891-0.95429-0.86836-2.4085-0.57205-3.4084-1.3762-1.4839-0.43592-4.3543-0.28721-3.8443-2.5668 0.14291-5.3157-0.30799-10.743 0.22858-15.975 0.79834-1.9791 3.3384-0.84499 4.7203-2.0031 1.208-0.0233 1.9756-1.0705 3.047-1.3558z" style="paint-order:fill markers stroke"/>
  <path d="m219.81 159.84c-0.13767 2.7204-0.28506 5.6431 0.0693 8.328 2.6655 0.10312 5.5359 0.14634 8.1572-0.25743 0.16989-2.662 0.40933-5.5007 0.11015-8.1318-2.6893-0.19024-5.5613-0.22221-8.2364 0.014z" style="paint-order:fill markers stroke"/>
  <path d="m199.99 159.73c-1.5534 0.30174-4.8712-0.85721-4.2413 1.8443 0.0686 2.1777-0.34951 4.4528 0.026 6.569 2.6893 0.19024 5.5613 0.22222 8.2364-0.0139 0.51108-2.4904 0.0581-5.3594 0.21348-7.9885-0.65021-1.1247-3.1062-0.135-4.2345-0.41089z" style="paint-order:fill markers stroke"/>
  <path d="m123.97 39.92c-0.19561 2.6602-0.4053 5.5089-0.11758 8.1417 2.6959 0.19048 5.5744 0.22209 8.2562-0.01395 0.47411-2.4363-0.0621-5.2472 0.0353-7.8221-1.176-1.1388-3.4851-0.1745-5.0941-0.48824-1.0086 0.11-2.1425-0.22894-3.0798 0.18255z" style="paint-order:fill markers stroke"/>
  <path d="m123.81 55.92c-0.13767 2.7204-0.28506 5.6431 0.0693 8.328 2.6655 0.10312 5.5359 0.14634 8.1572-0.25743 0.16989-2.662 0.40933-5.5007 0.11015-8.1318-2.6893-0.19024-5.5613-0.22222-8.2364 0.01395z" style="paint-order:fill markers stroke"/>
  <path d="m43.81 107.71c-1.3819 0.0506-2.4611 1.063-3.1027 2.1417-1.5029 0.80653-0.46476 3.1245-2.2729 3.7469-1.5031 0.26168-3.1297 0.28542-4.4425 1.2079-1.6024-0.20922-2.4727 1.8866-3.6442 2.7017-1.0141 0.85095-1.6575 1.9811-1.9115 3.2358-0.85969 2.4075-0.359 5.1824-0.59176 7.7184 0.07311 4.7848-0.27714 9.6508 0.43273 14.386 0.59244 1.0716 0.78902 2.4795 1.8007 3.4988 0.94112 1.2171 2.3218 1.915 3.4858 2.8601 1.4281 0.48193 2.8671 1.1615 4.3911 0.94864 0.83452 0.42746 1.78 0.92716 1.8515 2.0829 0.15524 2.8186 3.8776 5.0185 6.1986 3.1838 0.66393-0.15066 1.3827-0.52907 1.5835-1.3738 0.90478-1.264 0.5221-3.9733 2.6875-3.8385 1.1226 0.1052 2.3272-0.16764 3.1745-0.72896 1.3782-0.052 2.1071-1.2241 3.2259-1.8069 1.2712-1.1374 2.5254-2.706 2.7809-4.3199 1.2795-2.0931 0.62082-4.839 0.86734-7.1856-0.15622-4.934 0.29351-9.9511-0.48925-14.832-0.68776-0.91872-0.37418-2.1827-1.4734-2.8329-0.46947-1.4755-1.7509-2.3814-3.0483-3.0291-1.7102-1.4744-4.0277-1.5294-6.0922-1.9932-1.4167-0.73047-0.58077-2.7271-1.7785-3.7098-0.86863-1.1082-2.1744-2.0554-3.633-2.0613zm0.862 12.518c0.88631 1.4625 3.0407 1.629 4.5786 2.0613 1.3085-0.0239 2.7106 0.70213 2.5384 2.1516 0.21035 5.2702 0.18709 10.618 0.05074 15.899-1.1167 1.7094-3.3149 1.1844-4.8756 2.1126-0.69469 0.76334-1.9963-0.0152-2.539 0.95792-1.4312 0.43782-2.1748-1.1774-3.5934-1.203-1.4608-0.5614-3.8065-0.23508-4.5103-1.789 0.15939-5.7417-0.34868-11.608 0.28254-17.266 0.80176-1.7856 3.1402-0.31177 4.4103-1.6213 0.75819-0.62297 1.8746-0.16963 2.5347-1.06 0.34147-0.17808 0.73783-0.27253 1.1231-0.2432z" style="paint-order:fill markers stroke"/>
  <path d="m51.899 95.812c-0.15432 2.6075-0.29973 5.386 0.16089 7.9876 1.686 0.8818 3.8937 0.1864 5.7582 0.35265 2.3895 0.70731 2.7712-1.1807 2.4052-3.0835-0.29154-1.6672 0.61328-4.0022-0.47965-5.2493-2.5963 0.05361-5.3108-0.37222-7.8446-0.0075z" style="paint-order:fill markers stroke"/>
  <path d="m51.899 79.971c-0.15432 2.6075-0.29973 5.386 0.16089 7.9876 1.686 0.88179 3.8937 0.18639 5.7582 0.35265 2.3895 0.70731 2.7712-1.1807 2.4052-3.0835-0.29154-1.6672 0.61328-4.0022-0.47965-5.2493-2.5963 0.05361-5.3108-0.37222-7.8446-0.0075z" style="paint-order:fill markers stroke"/>
  <path d="m27.811 79.999c-0.13676 2.6023-0.29557 5.3665 0.16894 7.9592 1.686 0.88179 3.8937 0.18639 5.7582 0.35265 2.576 0.77988 2.6678-1.4848 2.4734-3.3877-0.26535-1.6154 0.73137-3.9336-0.39002-5.1066-2.6459 0.13266-5.4363-0.25423-8.0105 0.18255z" style="paint-order:fill markers stroke"/>
  <path d="m27.811 95.841c-0.13767 2.7204-0.28506 5.6431 0.06931 8.328 2.6655 0.10312 5.5359 0.14634 8.1572-0.25743 0.1699-2.662 0.40933-5.5007 0.11015-8.1318-2.6893-0.19024-5.5613-0.22222-8.2364 0.01395z" style="paint-order:fill markers stroke"/>
  <path d="m27.811 159.84c-0.13767 2.7204-0.28506 5.6431 0.06931 8.328 2.6655 0.10312 5.5359 0.14634 8.1572-0.25743 0.1699-2.662 0.40933-5.5007 0.11015-8.1318-2.6893-0.19024-5.5613-0.22221-8.2364 0.014z" style="paint-order:fill markers stroke"/>
  <path d="m51.899 159.81c-0.15432 2.6076-0.29973 5.386 0.16089 7.9876 1.686 0.8818 3.8937 0.1864 5.7582 0.35265 2.3895 0.70731 2.7712-1.1807 2.4052-3.0835-0.29154-1.6672 0.61328-4.0022-0.47965-5.2493-2.5963 0.0536-5.3108-0.37221-7.8446-8e-3z" style="paint-order:fill markers stroke"/>
 </g>
</svg>
