<svg version="1.1" viewBox="0 0 1045.3 424" xmlns="http://www.w3.org/2000/svg">
 <g>
  <path d="m21.6 173.99v-70.355l210.44 9e-3 0.15122 70.459z" fill="#dcdcdc" style="paint-order:fill markers stroke"/>
  <path d="m21.6 184.57 71.5-0.0706 0.125 71.754-71.625 0.0625z" fill="#f00" style="paint-order:fill markers stroke"/>
  <path d="m160.13 184.83 71.622-0.07895 0.18102 71.576-71.803 0.0794z" fill="#f00" style="paint-order:fill markers stroke"/>
  <path d="m243.36 184.57h69.677l-0.26528 212.1-69.431-0.35914z" fill="#dcdcdc" style="paint-order:fill markers stroke"/>
  <g fill="#f00">
   <path d="m160.17 324.08 71.627-0.0627-1.5e-4 72.281-71.614-7e-3z" style="paint-order:fill markers stroke"/>
   <path d="m323.35 324.95 12.649 0.23323-0.52336-67.31-12.132-0.12166 0.375-73.5 71.811 4.8e-4 -0.0338 212.25-72.027 0.14974z" style="paint-order:fill markers stroke"/>
   <path d="m21.6 21.18 210.36 0.03408 0.0332 71.545-70.18 0.31013-0.20675-13.45-68.257 0.09799 0.05855 13.352h-71.823z" style="paint-order:fill markers stroke"/>
  </g>
  <g fill="#696969">
   <path d="m461.74 210.01v-181.06c0-5.2296 2.8292-5.2433 5.3033-5.2591 2.4741-0.01579 5.3033 0.01252 5.3033 5.1265v356.91h184.2l109.25 0.16306 2.1656 3e-3c6.976 0.0104 7.0385 2.3675 7.0269 5.3138-0.0116 2.9463-0.11252 5.3031-7.1154 5.2931l-2.1212-3e-3 -114.51-0.16358h-189.5z" style="paint-order:fill markers stroke"/>
   <path d="m695.88 327.05s0.0815 35.923 0.15138 37.978c0.0699 2.0549 2.1489 1.9299 3.7194 1.9655 1.5705 0.0356 2.9738-0.63629 2.9772-3.2086l0.017-13.002 6.6455 0.0145s6.2206 12.857 7.0675 14.446c0.28254 0.53042 0.8157 1.154 1.4773 1.5076 0.58397 0.31208 3.7397 0.31307 4.3957-0.20297 1.4724-1.1583 0.97024-2.8817 0.0611-4.6643-0.90913-1.7826-1.3982-2.6233-2.0459-3.9284s-1.8437-3.235-2.5237-4.5406-2.0608-3.4285-2.0608-3.4285 1.5157-0.58869 2.5531-1.5301 1.5021-1.007 2.9102-3.0238 1.7611-5.3455 1.7573-7.7904c-4e-3 -2.4449-1.1107-4.4019-1.7069-5.4437s-2.5803-2.7442-3.53-3.481-4.1384-1.321-5.5546-1.5157-7.5776 0.0791-11.258-0.19607c-1.4683 0.0795-5.0524 0.0435-5.0524 0.0435zm11.112 6.0033c2.7591-0.0152 5.0526-3e-3 6.5074 0.69068 1.4549 0.6934 2.8367 1.9952 2.8804 4.1014 0.0437 2.1062-0.24163 3.3546-1.0918 4.565s-1.7716 1.4042-4.4855 1.5663c-3.5079 0.0774-8.0571-0.0211-8.0571-0.0211v-10.902z" style="paint-order:fill markers stroke"/>
   <path d="m664.03 328.83c-0.0216 0.89411 0.11857 3.3958 0.0683 6.164 0.0761 10.005-0.15236 20.06 0.11435 30.033 0.82531 2.7445 4.3568 1.3111 6.4816 1.6652 5.7499-0.14933 11.599 0.30069 17.286-0.2287 2.0643-0.95963 1.4222-4.032 0.91222-5.8238-2.2631-1.5937-5.3333-0.41269-7.9453-0.77547h-10.375v-9.0819c4.9655-0.14903 10.03 0.29941 14.933-0.22869 2.0615-0.95628 1.4235-4.0226 0.91222-5.8107-2.2547-1.5877-5.3175-0.46226-7.9214-0.85032-2.5922-0.0304-5.1844-0.0615-7.7765-0.0923-0.0242-3.0449 7e-3 -6.0599-0.0559-9.1358 5.5273-0.0487 15.304-0.26131 16.983-0.26028 1.679 1e-3 1.6987-0.6227 1.6433-4.0776-0.0554-3.4549 0.0182-3.7486-3.2004-3.759-5.0962 0.13234-17.962-0.011-19.536 0.0412s-2.5024 1.327-2.524 2.2211z" style="paint-order:fill markers stroke"/>
   <path d="m631.91 330.9c0.0347 2.2906 0.37481 3.109 2.9629 3.1295 2.588 0.0205 7.4203 0.16516 7.4203 0.16516s0.0996 27.762 0.17353 30.088c0.0739 2.3257 2.298 2.6269 3.7912 2.6172 1.4932-0.01 3.1532-0.49415 3.1313-3.069-0.0219-2.5748 0.0106-29.677 0.0106-29.677s5.7657-0.0579 7.7026-0.0777 3.0772 0.0324 3.049-3.4884-1.0417-3.5856-2.1037-3.6088c-1.062-0.0232-21.063-0.0505-23.596 0.0259-2.533 0.0764-2.5761 1.6048-2.5414 3.8955z" style="paint-order:fill markers stroke"/>
   <path d="m612.48 329.43c-0.6996 2.4197-10.007 30.418-10.78 32.78s-1.3472 4.1889 2.2629 4.6998 3.4126-1.638 4.023-3.2787 1.9325-5.178 1.9325-5.178l14.128-3e-3s0.84971 2.5458 1.8797 5.2304c1.03 2.6846 1.4244 3.2086 3.9747 3.1913 2.5503-0.0172 4.0221-0.68755 2.8543-4.2468s-9.8871-29.794-11.045-32.669-3.5226-2.9502-4.6535-2.9195c-1.5432 0.0419-3.8766-0.0264-4.5762 2.3933zm4.6481 5.1566 5.979 18.687-12.008 0.1019z" style="paint-order:fill markers stroke"/>
   <path d="m739.89 329.54c-0.6326 2.4197-10.891 30.418-11.664 32.78s-1.3472 4.1889 2.2629 4.6998 3.4126-1.638 4.023-3.2787 1.9325-5.178 1.9325-5.178l14.128-3e-3s0.84971 2.5458 1.8797 5.2304c1.03 2.6846 1.4244 3.2086 3.9747 3.1913 2.5503-0.0172 4.0221-0.68755 2.8543-4.2468s-9.998-29.794-11.045-32.669-3.1853-2.9502-4.2079-2.9195c-1.3954 0.0419-3.5053-0.0264-4.1379 2.3933zm4.203 5.1566 5.5403 18.687-12.008 0.1019z" style="paint-order:fill markers stroke"/>
   <path d="m562.58 331c0.0266 1.1068-0.0214 31.641-0.0655 33.565-0.0437 1.924 2.0365 2.4994 3.6148 2.4836 1.5784-0.0158 3.0092-1.003 3.0546-3.1154s0.27217-19.468 0.27217-19.468 4.7731 11.246 5.3397 12.388 1.3557 2.7238 4.9439 2.7643c3.5882 0.0405 3.8745-1.8119 4.4979-2.9981s5.3016-12.036 5.3016-12.036-0.11282 17.135-0.0587 19.509c0.0542 2.3735 2.5882 3.0823 4.1471 2.9343s3.0189-0.79785 3.088-3.5703c0.145-5.8167 0.30593-32.208 0.30593-32.208-0.0267-3.0748-1.4646-4.083-3.2328-4.1377-1.5653-0.0484-3.7523 0.0302-4.8009 2.681-1.0486 2.6508-9.3634 23.055-9.3634 23.055s-8.0421-19.022-9.1847-21.851-1.7752-4.0062-4.9807-3.9437c0 0-2.9914-0.72265-2.8791 3.9492z" style="paint-order:fill markers stroke"/>
   <path d="m529.64 362.67c2.9384 3.7949 7.8665 4.3619 11.965 4.2959 4.0989-0.066 8.2639-0.84279 10.911-3.7824s3.3087-6.1716 3.4366-11.242 0.12548-16.193 0.0576-20.313c-0.0679-4.12-1.6899-4.39-3.4817-4.5856s-3.8625 0.57196-3.8547 3.2732c8e-3 2.7013 0.1896 12.911 0.1127 17.313-0.0452 2.5887 0.15112 5.7814-0.45586 8.3648-0.42515 1.8095-1.2491 2.9475-1.9873 3.3251-2.0012 1.0237-4.2369 1.6744-6.295 1.4221-1.9694-0.24141-3.5159-1.4539-4.7183-3.1734-1.108-1.5846-1.6655-2.1752-1.5674-9.0857 0.0981-6.9105 0.31801-13.91 0.25006-17.479-0.0679-3.5682-1.9574-3.9923-3.7425-3.9966-1.7851-4e-3 -3.6637 1.1428-3.597 3.804s-0.01 14.099-0.0112 18.006c-1e-3 3.9073 0.039 10.058 2.9774 13.853z" style="paint-order:fill markers stroke"/>
   <path d="m508.95 326.99c-1.4374-5e-3 -2.8882 0.16957-4.2792 0.53172-1.3545 0.35264-2.6964 0.84975-3.8905 1.5799-1.2081 0.73876-2.3806 1.6322-3.2165 2.7753-0.79408 1.0859-1.3919 2.3798-1.5862 3.7109-0.44031 3.017-0.3489 6.3739 1.0413 9.0874 0.71384 1.3934 2.1616 2.3075 3.4748 3.1599 1.0346 0.67152 2.2161 1.1034 3.3884 1.4867 1.3299 0.43483 2.7439 0.5566 4.0976 0.91012 1.8657 0.4872 3.88 0.68492 5.5395 1.667 0.97901 0.57934 2.1141 1.2999 2.4348 2.3913 0.40925 1.3926-6e-3 3.1546-0.96192 4.2468-1.3305 1.5202-3.667 1.9551-5.6812 2.1101-2.6689 0.20545-5.3039-0.45374-7.867-1.6108-4.301-1.9417-4.8982-1.4158-5.9437 0.92497-1.3801 3.09 1.5452 4.0189 3.4382 4.9676 3.1404 1.5737 8.5445 2.1001 12.851 1.731 1.4156-0.12134 2.8023-0.62979 4.0659-1.2796 1.9123-0.98341 3.8373-2.1793 5.1548-3.8787 0.94009-1.2126 1.5802-2.7283 1.7638-4.2516 0.30436-2.5249 0.0534-5.3077-1.1651-7.54-0.699-1.2805-2.0345-2.1364-3.2766-2.9016-1.218-0.75044-2.6308-1.1333-3.9865-1.5903-1.7801-0.60003-3.6515-0.90312-5.4304-1.5067-1.7093-0.58001-3.7338-0.76184-5.0216-2.0267-0.76658-0.75298-1.2646-1.8927-1.2598-2.9672 7e-3 -1.4984 0.67043-3.13 1.7936-4.1218 1.2247-1.0814 3.0684-1.4202 4.7018-1.3845 1.9972 0.0436 4.5755 0.82983 6.5442 1.4695 4.4332 1.4403 4.9441 0.53483 5.6686-1.4384 0.65559-1.7856 0.0631-2.8349-2.4728-4.0942-1.338-0.66445-2.9853-1.1063-4.534-1.4529-1.7668-0.39534-3.575-0.69912-5.3855-0.70505zm-13.08 33.023c0.17366-0.48712 0.18038-0.43922 0 0z" style="paint-order:fill markers stroke"/>
   <path d="m879.8 267.76c-0.78127 0.23393-1.0863 1.5678-4.2109 1.4619s-10.39-0.45814-13.031 0.80566-2.7035 1.295-4.1406 1.7988-1.8686 0.99106-3.7529 1.9844-0.7596 4.7016-0.16894 6.5107-2.3435 1.2879-2.3555 3.2148c-0.012 1.9269-0.0674 4.6453-2.5644 4.2051-2.497-0.44022-3.4554-3.1787-5.4658-2.2627s-0.86963 2.2586-3.4609 2.2197c-2.5913-0.0389-8.1578-0.87527-8.6338 1.8477s-1.4497 2.5213-2.5049 4.0049-3.6901 1.4871-4.9141 3.251-2.8501 1.6684-5.1025 1.9454-2.9387-1.2804-5.4492-1.4874-4.9649 0.99295-4.5391 4.0391 2.2022 6.3696 4.7617 6.8008 3.4885 1.5285 4.9209 3.209 0.13685 4.8385 2.6465 5.7402 4.0905-1.8275 5.6553-1.5078 2.7257 0.39105 3.6631 2.2178 2.8253 1.1581 4.919 2.1338 1.298 3.4583 1.4326 4.8574-1.0275 1.0244-2.749 2.0254-3.8002 2.9496-5.3818 4.3076-5.7517 2.8843-3.2326 4.3306 1.3282 1.5676 3.0715 2.7621 4.9897 0.16317 6.9287 1.7012 4.9834 0.0527 5.6553 2.6826c0.67183 2.6299 0.38927 5.1852 2.8877 5.583s4.0504-0.0459 6.1572 1.1289c2.1069 1.1748 4.7479 1.14 5.2764 3.2451s1.2349 2.3422 1.5742 4.0469 1.5431 2.5592 2.3057 4.3623 1.0101 3.521 2.877 4.4463 3.9053 4.2628 5.6885 2.1943 2.5216 0.14495 4.3369 0.55957 5.8987-0.6379 5.1279-2.9434-3.0183-2.2384-2.0146-3.8486 2.151-3.5944 0.43945-4.9922 0.73419-2.9837 2.209-3.5127 2.9788-0.9893 3.8369-2.3799 1.739-1.7669 3.706-2.125 5.5894-0.40122 7.3867-1.6504 2.3422-1.2544 4.2266-1.6113 4.3421-1.5587 4.6543-3.542-0.10774-2.5455 1.5332-4.3281 5.4966-4.2141 6.3662-6.0635 1.5486 1.2599 2.7471 1.0615 2.0398 0.45597 3.2558 1.1816 3.0944 2.1186 3.6426 3.7959 0.85804 2.4113 2.1465 4.5478 5.7455-0.18299 5.8396-2.8369c0.0941-2.6539 3.3279-4.7014 1.7707-6.1885s-1.4656-1.0498-2.3564-2.293-1.8835-2.7332-0.72851-4.0791 1.2435-3.6023 2.4248-5.0449 0.72356-3.1714 1.6318-4.417 3.6835-0.84219 3.6865-3.2803c3e-3 -2.4381-0.21558-7.1891-2.9277-6.8262s-2.6198-0.93623-3.8711-1.6894-2.6022-1.0018-2.1289-3.3135-2.2967-5.0626-3.7334-5.8838-1.6577-0.97695-1.7578-2.6973-0.44219-5.9561-3.5088-5.416-5.2629-0.25901-7.5674-0.95508-3.2723 0.88275-5.7461 0.19727-6.7697-1.145-9.0264 0.27343-0.45684 4.3815-1.7129 5.873-0.66373 2.0033-2.1289 2.3809-4.2057 1.3314-3.8057 3.083-1.222 2.1583-1.0127 0.14062-0.35274-4.8596 2.207-5.5166 3.3519-5.1038 0.67578-5.291-0.93988-0.72951 0.0654-1.7774 1.8916-1.425 3.3926-1.9453 3.2772-1.6523 4.0205-3.665-0.85487-5.0879-3.3613-4.7978-5.0195 1.5742-6.0908-0.24805-3.9834-2.255-3.9248-4.3096c0.0586-2.0545-1.7236-3.5122-2.6885-3.4326-0.96491 0.0795 0.78129-0.23393 3e-5 0z" style="paint-order:fill markers stroke"/>
   <path d="m843.99 234.76c-2.1568 0.0714-5.1854 2.1305-7.4512 0.58106s-3.8536 0.48551-6.0039 0.50684c-2.1503 0.0213-2.4286 2.87-4.377 3.9424s-1.8791 2.9099-3.3838 4.3057-3.3608 1.8204-4.7715 0.87012-3.0771-0.31282-4.542-3.2061-9.0924-3.5424-11.236-1.126-4.083 2.9343-3.7139 5.9394-3.6194 4.5582-4.5547 6.7022 1.5394 3.8884-0.12109 5.3438-2.8528 2.8629-4.1904 4.3389-2.4418 1.3669-4.4951 2.8789-7.2224-0.11989-8.7617 2.3574 0.30546 4.1152 1.5078 5.2969 0.83717 2.9088 2.4072 3.7529 1.3959 3.745 3.3516 3.8613 2.3993 0.86838 3.5312 2.2031 2.18 1.535 2.5039 3.7549 3.3666 4.0067 4.8076 5.4697 1.9498 2.919 3.4873 3.5342 3.2127 0.0655 4.8877 1.3047c1.675 1.2392 3.2333 0.81965 5.1133-0.17676s4.2586-3.5466 6.0156-2.1611 2.356 1.3057 4.334 2.1299 4.4297-1.891 6.0449-2.5557 1.0448-1.0725 3.5887-1.538-0.23094-6.7259 2.589-7.7745 8.0348 0.49264 9.1514-1.6699 0.55908-2.0752 2.0225-3.1641 3.4139 0.70058 5.2275 2.0391 3.7062-1.3725 4.7129-3.0381 0.10687-4.2225 1.3662-5.8359 1.4665-2.0376 2.8047-2.9141 2.4014-1.2022 4.1523-1.8291 3.6405-0.86407 5.2568-2.1006 2.3508 0.24838 4.5371 1.1367 7.2623 0.42965 8.835-1.54 2.2938-1.8579 4.1455-2.6162 0.37857-1.8194-0.98633-4.0557-0.89756-6.9172-1.7812-10.497-3.1148-3.9276-5.25-3.9675c-2.1352-0.0399-2.2517-0.85667-4.5372-1.5002s-5.9832 0.29566-8.248 1.2793-2.4229-2.9022-3.9473-3.5898-2.7137-1.3649-3.9492-2.8672-3.6102-0.78704-4.8164-2.4775-3.1068-1.3995-5.2637-1.3281z" style="paint-order:fill markers stroke"/>
   <path d="m736.85 183.75c-1.508-0.28612-3.1339 3.7571-1.3242 4.7871s2.0757 1.7864 1.9766 3.5127-2.936 3.0538-4.4443 3.2852-2.4894 0.0849-3.9238-0.71191c-1.4344-0.79679-4.0411-3.9171-5.6885-2.1943s-2.3435 1.1345-4.7588 2.3418-2.8551 4.5464-0.9746 6.332 3.3305 2.7913 5.3545 3.1709 2.8049 0.79237 3.8076 2.5938 2.946 2.7227 4.3135 4.4365 0.77338 3.0594 2.335 5.6201 3.6153 5.0351 5.3272 7.0488 3.2908 3.5028 4.0908 5.3818 2.5079 1.6819 3.5977 3.2266 2.66 2.8893 3.3867 4.8213 0.85079 3.1888 2.0518 5.0029 0.48401 4.0496 1.582 5.8232 2.4338 3.2093 4.0312 4.1836 0.0677 3.2104 1.2959 4.7764c1.2282 1.566 1.2808 3.2414 2.6387 5.2422s1.8565 3.9315 3.0664 5.667 1.8299 3.3099 2.8535 4.417 1.4163 2.4996 0.24902 3.749-0.77624 4.6481 0.34766 6.3223 1.4732 2.1435 1.8291 4.1523 2.9019 0.94595 4.5518-6e-3 2.9391-1.5451 4.5283-2.0772 3.7164-2.2429 2.208-3.6748-1.5865-2.5288-3.0205-3.667-1.9677-2.3368-2.4473-3.9014-1.4076-1.8407-1.956-3.3486-2.6994-4.0749 0.043-5.5996 10.683 0.33421 13.307-1.0762 0.71292-1.8256 2.7832-3.1963 1.4516-6.1852 2.2588-8.3164 3.4804-1.2331 3.7949-3.5928-0.67455-4.5097-2.8486-5.7217-3.8102-1.2438-5.0693-2.4356-2.2148-0.3609-3.0322-1.8486-2.0425-1.8239-4.0459-2.5752-3.5112-3.5987-5.291-5.0781-2.32-3.7059-3.8115-5.1514-1.8969-1.8469-3.0508-3.3398-2.9179-1.5732-3.6582-3.4102-2.014-2.2935-2.5625-3.7764-1.3814-3.7408 1.2148-4.4443 1.7623-6.3611-0.0625-7.75-2.6762-2.5588-4.3223-3.0498-2.5118-0.51063-3.3828-2.1553-3.5013-1.8363-5.1797-0.32129-3.1516-1.319-4.5225-2.3369-2.0607-3.4682-2.624-5.1055 0.79224-4.3518-0.65632-5.7124-4.6737 0.12125-6.166-0.3198c-1.4923-0.44104 1.508 0.28626-3e-5 1.4e-4z" style="paint-order:fill markers stroke"/>
   <path d="m768.38 135.76c-1.3123-0.0511-2.8795 2.9559-1.8799 5.0518s0.98034 3.1984 2.0859 4.7861 2.2501 3.6107 0.91309 5.1475-2.8613-1.3309-3.2324-3.4922-3.3122-3.3858-5.1162-4.5635-2.558-1.528-4.1279-2.5537-4.4608-2.2958-5.8281-0.36621-0.50124 2.9667-1.5078 5.1621 1.4489 5.6212 2.3125 7.3525 0.64486 2.2188 1.4668 3.7109-0.42012 3.39-2.333 4.0654-2.678 1.0193-3.8682 2.0928-2.6416 0.63309-4.1738 2.6436 1.5452 3.7393 2.8018 6.1894 0.63059 8.0577 0.47852 10.338-1.0018 0.78225-1.2378 2.6015 0.0662 5.4733 0.99074 8.1749c0.92452 2.7016 5.0709 2.7768 7.457 2.6523s3.3356 1.4281 5.2256 2.4746 2.9894 1.2125 4.2774 2.9678 3.6875 3.2958 3.3941 5.5896 1.366 4.7816-0.47808 6.0217-1.6883 3.2236-0.47168 5.2822 2.6956 2.8206 4.3643 4.3975 3.6459 3.6644 4.9766 5.3809 1.5159 2.6543 2.9961 3.8096 2.3051 3.0415 3.8613 3.793 2.8191 1.5867 4.0791 2.7539 2.2808 1.8778 4.0205 2.7207 3.7828 0.43159 6.1894 1.2461 3.7016-2.7085 6.2754-3.8486 7.5851-1.2894 9.7314-0.0732 1.7083 1.6271 2.5195 3.3301 2.5267 1.4091 3.998 3.1367 2.7901-1.0551 4.0898-2.8232 3.4429-3.7273 5.0068-4.8174 1.8036-1.0008 3.4033-2.0791 4.4192-0.50829 7.2197-0.77599 8.9381-0.65542 9.6553-3.4545-0.5563-2.5177-1.3828-4.29-0.36335-5.453-2.5283-6.71 0.49048-2.4502 2.208-2.5332c1.7175-0.0831 2.8476-1.6198 4.3984-3.0205s1.2553-2.5862 2.8887-3.9863 6.7585 0.12354 6.5-3 0.24288-7.1756-3-6.5-2.3538-0.82812-3.2031-2.8125-3.2483-2.1004-4.9307-3.3721-3.9951 0.40967-5.1074 1.5781-1.9755 1.2639-3.5996 2.1436-3.2103 2.1044-5.0254 2.7783-2.4649 0.87764-3.8682 2.0928-4.6598 0.26422-6.2461 1.2842-3.0093 2.7993-4.2031 1.249-4.6956-1.9532-3.3164-3.4414 3.0615 2.212 4.6377 1.3496 2.016-1.3752 3.3086-1.9395 2.1481-1.0094 3.7324-1.9033 2.7202-1.3227 4.5146-2.3574 4.9752-2.3566 3.4365-4.2715-1.8095-3.0222-4.5156-4.5195-9.2378 0.0338-11.686-1.2363c-2.4478-1.2701-2.2917-0.76669-3.9297-2.4971s-3.9508-3.514-6.7617-5.1016-0.79621-6.4286-2.2295-9.1846-1.0507-4.9771-3.4902-5.6562-3.2938-3.944-5.5713-4.5928-3.0645-2.3931-4.6738-3.3144-2.8918 1.3856-4.416 0.76758-3.4294-1.0077-5.4775-1.9102-1.7717-3.4946-2.5703-4.6582-1.9062-0.9882-1.1162-2.6045-0.1009-3.2414-1.6162-4.2608-2.0668-3.6274-4.419-4.1885-4.7713-3.6905-6.2764-3.4062 1.3123 0.0511 0-4e-5z" style="paint-order:fill markers stroke"/>
   <path d="m784.66 283.75c-1.946-0.12012-2.7458 1.8246-4.5908 1.8555-1.0241 1.1405-2.4397 1.3904-3.6865 2.1572-2.7274-0.10714-3.9073 3.6463-1.7041 5.1846 0.7537 2.0217 3.1978 1.3696 4.2998 2.9102 2.1643 0.29314 3.5989 1.8932 3.96 4 1.4686 1.0354 0.89814 3.217 2.5889 4.1396 0.50324 1.52 1.016 2.9412 1.7607 4.3584 1.4748 1.064 2.3582 2.3965 2.9834 4.0742 1.4744 2.163 3.5415 4.2174 6.1006 4.9404 1.2569 1.1275 2.2815 2.9086 4.209 2.9219 1.2676 0.86227 2.1895 2.3617 3.791 2.5781 1.37 1.8407 3.7187 2.0416 5.2637 3.5625 2.2055 0.25638 2.5594 2.4016 2.4892 4.3086 0.37476 2.1367 3.1584 2.9792 2.3858 5.5059-0.3642 2.3956 1.5472 3.9171 3.2978 4.9795 0.95174 1.5054 2.8013 1.4289 3.8135 2.8359 1.5106 0.34371 1.4132 2.8108 3.4141 2.6064 1.4373-0.0958 1.7098 1.924 3.1309 2.252 0.95067 1.4138 2.3399 2.8698 3.9111 3.4141 0.48782 1.6987 2.0235 2.9856 3.541 3.7275 1.7749-0.0427 3.2375 0.64682 4.7529 1.3076 1.3337 1.3011 2.6632 2.7364 4 4 1.6386 1.4401 2.9095 3.7893 5.4512 3.8594 1.6946 2.174 5.2762 1.8174 7.5772 0.86524 1.9977-1.2302 0.68961-3.4753 0.10156-4.8857 0.48216-2.5053-1.9506-3.8639-3-5.5 0.85925-3.1476-1.9681-4.5565-4.6543-4.002-1.4497-1.3516-3.6564-0.39936-4.8223-2.0684-1.4424-0.1644-2.1894-1.6583-3.5234-1.9297 0.35876-1.7025-0.91734-2.964-1.5742-4.1631-0.22567-2.4196-3.0853-2.0368-4.4756-2.6309-1.9686-2.0156-5.1308-0.45413-7.2832-2.081-1.7687-0.67819-2.507-2.9121-4.332-3.7588-0.94471-1.3431-2.031-2.0478 0.24511-2.3896 2.0446-1.1284 2.8629-3.6182 5.3037-3.9863 1.3686-0.76101 2.596-2.0144 2.749-3.5273 2.0304-0.42342 4.7909-3.1221 2.4092-4.9238-1.6049-0.55766-3.2755-0.35183-4.7285-1.3125-2.1435-0.72722-4.181 0.37332-6.1006 0.80566-1.3058-0.67514-2.7593-0.96352-3.7188-2.1924-0.61828-1.5538-3.1706-1.5053-2.502-3.6846 0.24637-2.4486-2.3803-3.4025-4.3408-3.1719-0.9259-1.8197-4.2772-0.90761-3.667-3.5938 0.10972-2.0286-1.7039-3.0203-2.1436-4.8164-1.0499-1.0377-2.4982-0.94473-3.3467-2.2334-1.2351-1.1222-3.1406-1.1408-4.4932-1.585-0.999-1.1809-2.5544-1.1159-3.502-2.3359-1.113-0.51149-3.0743 0.03-2.5713-1.9326-0.43388-2.4777-3.599-2.7377-4.2978-5.0693-2.0061-1.1383-0.33044-4.485-3.04-5.2031-0.46011-0.15411-0.95015-0.18136-1.4316-0.17285z" style="paint-order:fill markers stroke"/>
   <path d="m911.73 333.27c-1.4644 0.14535-1.9371 3.8283-4.0723 4.0859s-1.0198 2.9878-2.251 3.9141-2.5048 1.3452-2.9541 3.0615-3.0945 1.0643-4.6328 2.4258-3.5853 0.66375-4.9307 1.7812-2.6458 1.0022-4.5557 2.1914-3.5024 1.5349-6.5 2.5225-3.3166 3.5588-3.3444 5.7499c-0.0278 2.1912-1.0181 4.3212 0.85122 5.4141s0.50813 2.4901-0.71875 3.8369-2.8296 1.0814-4.9248 2.4521-7.879-0.077-8.1924 2.6172c-0.31336 2.6942 0.65441 3.0939 1.7217 4.4707s2.1161 2.0861 2.5928 4.333 3.0216 4.3046 4.9014 5.5898 3.3472 1.8568 4.0918 3.9024 3.5644 4.1816 5.6074 2.5 0.18062-4.9833 1.4551-6.0078 2.725-2.3039 4.1572-1.1309 2.3079 2.8676 3.9473 3.5898 2.9727 1.5943 4.9004 2.792 5.7565 2.1366 7.1832 0.42909 0.33288-4.4206 1.5433-6.015 1.9673-3.5994 3.0107-1.4834 3.4311 3.2223 4.5635 5.0186 3.8437-0.20406 4.8164 1.9678 2.2439 5.0614 4.9666 3.7941 1.1654-5.6021 1.5334-8.3204-0.1489-5.4184 1.2031-8.0459-0.71638-7.089 0.74512-9.0459 0.49506-2.935-0.40137-4.708 0.0985-3.7429 1.1406-6.0576c1.0422-2.3147 0.49426-6.9997-0.79981-8.5352s-1.1299-1.0846-1.8604-2.7705-0.27413-6.4268-3.0273-5.8369-2.5716-0.82383-3.3106-2.1289-0.67953-2.8262-2.0957-4.4443-4.2195-2.6454-5.0508-3.6777 0.15478-0.37679-1.3096-0.23144z" style="paint-order:fill markers stroke"/>
   <path d="m681.18 75.602c-1.7518-0.32548-4.011 2.0412-6.5419 5.2696s-1.4121 0.99859-2.6201 2.1846-1.492 3.2035-3.292 4.6523-0.13533 4.6186 1.1641 5.7822 1.4819 2.1342 2.1182 3.6318 1.4192 2.1659 2.333 3.5596c0.91383 1.3937 0.13795 2.5078-1.7217 3.0234s-2.0047 2.1434-0.67187 4.3086 0.39424 6.9936 2.5439 8.5186 1.7223 2.3602 1.6553 3.9541c-0.067 1.5939 2.169 1.6347 0.54492 3.2871s-0.8437 4.9102 0.85937 6.959 0.0615 5.1187 1.0938 7.1592c1.0322 2.0405 3.0187 3.7756 4.5791 4.582s2.8588 1.9502 4.7236 1.7744 2.8142 1.2936 4.125 2.5879 2.1375 3.0872 3.3691 4.6562 4.5564 0.60128 4.7256 2.6777 2.4656 2.1322 0.80371 3.7861-0.33768 5.2997 0.52636 7.3418 0.39509 3.6945 1.3564 5.3838 0.58586 3.2227 1.8994 4.6221 1.0943 3.4599 1.7441 5.5117 1.9469 2.8149 1.5391 5.2266 3.1573 3.6106 2.4707 6.2734 2.8618 5.0522 4.5478 3.25 2.6786-2.1028 4.4336-2.5488 2.577-0.97621 4.1709-2.2402 2.6231 0.16996 4.96 1.5166 7.0428-1.1835 5.2354-3.4346-1.8104-1.6086-2.1768-3.5146-4.3119-1.2843-3.675-3.8447 2.5221-0.76575 4.1799-0.4102 3.3362-0.11181 5.3701 1.2783 6.9349 0.26977 6.4434-3.1182-0.58203-5.9747-1.501-8.5488-3.0342-4.1689-2.4805-5.8652 2.2706-1.9151 3.8145-2.3994 2.0535-1.511 3.3486-1.956 1.9172-0.91383 3.4404-2.1006 0.85533-3.2632-0.17676-5.1133-2.5452-2.7429-2.4241-5.8496 0.4141-8.7448-1.0661-10.957-1.5641-2.9669-0.38379-4.7666-0.37701-4.2978-2.4014-3.8682-2.5089-0.80073-3.6631-1.9024-2.2309-0.85443-3.5918-2.123-0.80862-2.3608 0.25097-4.2178-0.65982-5.7832-3.1201-6.4248-1.8181-1.8528-2.4033-3.8398-4.0666-1.9247-5.6416-2.8516-3.3312-1.2357-3.6709-3.2637-2.7001-1.8348-3.8359-3.1514c-1.1358-1.3166-2.9387-0.81272-4-2.5s-3.5963-2.2021-4.9531-3.5713-2.1676-1.879-3.8037-2.0791-3.2166 0.0037-4.5859-1.2061c-1.3693-1.2098-2.6607-1.3101-4.1523-2.8193s-0.3703-4.4507-2.791-4.9082-2.9186-2.4067-5.3555-3.2148-5.5133-0.77721-6.5205-2.168 0.60329-1.656-1.1485-1.9815z" style="paint-order:fill markers stroke"/>
   <path d="m591.92 27.757c-1.8898-0.14288-5.2508 0.87634-6.0283 3.1191s-0.12955 3.8415-1.5898 5.3799 0.98296 2.8742 2.0117 4.1934 0.98526 3.0133 1.7002 4.7188 1.4141 2.6872 1.6143 4.5996 1.3907 3.5053 2.6016 4.877 2.0844 1.5607 2.8047 3.0742 2.5012 1.6431 3.502 2.8721 1.7657 2.7977 3.085 3.4736 1.4596 1.5211 2.6084 2.5801 1.855 1.3195 2.8047 3.0742 3.7981 2.743 5.419 3.749 1.8739 1.3258 3.5537 2.4814 2.3276 3.8268 4.1797 5.0205 2.1482 2.331 2.6455 4.2422 2.6833 1.4419 4.2256 2.6562 4.1997-0.48697 5.9023-0.34766 3.6831 1.0402 4.9346 1.9707 1.032 2.7117 2.4072 3.7529 3.1949 2.2016 3.7119 3.9238 1.5517 2.7759 2.0772 4.5283c0.52545 1.7524 2.837 1.7379 4.2256 2.6885s1.309 2.292 1.6855 3.919 1.3705 2.5293 2.5391 4.29 2.5608 2.2087 4.4365 3.2656 3.7612 2.3421 3.5202 4.6201 0.3221 3.8772 1.4563 6.0703-0.0381 6.7868 2.6338 8.1728c2.6719 1.3861 5.562 2.575 7.377 0.87598s-0.0239-5.7987-0.39062-7.4775c-0.36671-1.6789 1.2433-6.0863-0.13965-8.5215s-3.9594-1.6429-3.6611-3.9443-1.434-4.1323 0.39453-6.2744-1.6082-4.2828-0.0332-6.6377-0.22101-5.4101-1.4199-7.1006-0.8199-3.757-2.4219-4.75-1.2734-2.3923 0.48437-3.1787 1.8492-3.3469 2.8106-5.04 2.9963-2.3493 3.915-4.0098 1.8583-2.8093 3.0977-4.3467 3.9176-1.9129 4.1777-3.3467-1.6029-7.0383-3.8106-7.8047-3.9916 0.41212-3.4775-1.9824-1.8735-3.8336-1.5312-5.9082-1.4779-2.0517-2.498-3.8691-2.8253-1.5912-4.3057-3.3838-3.5533-3.0706-5.3652-5.0547-5.8342-1.5094-7.5381-0.19238-2.2846 0.96726-4.4414 0.2666-2-3.2078-5.1279-3.1377c-3.1279 0.07012-8.3412-0.88829-11.147 0.60449s-5.652 0.29278-7.8691 0.72662-2.5712-0.9765-4.4659-1.3145-4.2864-0.8832-6.1494-1.1133-2.3178-0.78835-3.9199-1.6797-3.4607-2.6612-3.9609-4.8398-2.6141-1.5707-4.1455-2.6475-3.611-2.0365-5.3447-1.8584-1.87 0.11749-3.7598-0.02539zm-4.3086 1.542c-0.11913-0.0049 0.11913 0.0049 0 0z" style="paint-order:fill markers stroke"/>
   <path d="m926.16 260.2c-1.504 0.92246-0.59169 3.5573 0.58838 4.979s-0.0101 2.7851-1.875 2.6987c-1.8649-0.0864-2.1201-1.0311-3.3169-1.228s0.0479-1.7723-0.37908-3.5117c-0.42699-1.7394-3.1402-1.5608-5.1722-1.7466s-3.2694 3.0622-2.2974 4.2275 1.3068 1.1793 0.30293 1.6767 0.0421 1.9303-0.89473 2.1075c-0.93686 0.17718-3.8646 2.2177-5.8276 2.5627s-2.4134 3.1475-0.95744 3.7625 1.306-0.0795 2.5651 1.0645c1.2591 1.1441 4.5605 0.62283 6.3523 0.58491 1.7918-0.0379 2.2814-2.7187 3.7222-1.25s4.2098 0.76238 5.4092 1.3716 2.1071 4.4023 2.665 5.2812 1.3393 0.71288 0.95362 2.1016 1.3486 3.3119 2.75 3.2456c1.4014-0.0663 1.248 0.97187 1.25 2.1851 2e-3 1.2132-0.45678 1.7192-1.04 3.0854s0.0669 3.7364 1.167 5.0488c1.1001 1.3124 5.4213 2.5555 6.1832 3.5323 2.1233 2.7221 7.7288 2.3243 8.8212 3.52 1.0924 1.1957 4.9852 0.63684 4.8687-1.3716s-0.69146-2.3159 0.76029-3.7576 1.5173-4.1233 2.4511-5.2668-0.86046-3.2154-2.3101-3.1479-1.9802 0.19115-3.0435-0.90364-3.9055 0.034-4.9892-0.54558c-1.0837-0.57955-0.78641-1.5243-1.6064-1.9419-2.0915-1.065-2.9659-3.5365-3.2621-4.6167s-1.2912-7.5656-2.7501-9.2134c-1.4589-1.6478 0.69435-4.8901-0.51222-6.1074s-0.95311-2.236-1.8647-2.8682-1.4511-0.71292-1.623-1.8809-0.35697-4.1144-2.25-4-3.3344-0.6002-4.8384 0.32226z" style="paint-order:fill markers stroke"/>
   <path d="m987.66 293.7c-2.1122 1.1638-1.5177 2.5702-1.2652 7.5036 0.2525 4.9333-1.169 5.8954-0.65355 8.9616s6.393 1.1674 6.24-0.54773 0.67082-1.4303 1.2627-1.4898c0.59187-0.0595 1.0766 0.63886 1.7607 1.1348s0.77072 0.783 1.4971 1.9146 3.5479 1.0916 4.854 0.69335 1.2271-1.4208 2.1167-2.1992-0.074-2.7112 0.6997-3.4575c0.774-0.74636 0.075-1.5698 1.2969-2.3843 1.2221-0.81446 1.0422-4.3729-0.4785-5.0889s-0.8986-1.6226-1.8843-2.4388-3.5359 1.0968-4.3579-0.424-1.4033-2.7578-3.5-2.5-5.4762-0.84153-7.5884 0.32226z" style="paint-order:fill markers stroke"/>
   <path d="m698.83 241.26c-1.6246-0.0245-2.7257 2.0916-3.8936 3.9356s-0.0119 5.2139 1.1348 7.1377c1.1467 1.9238 2.1794 2.796 2.7393 4.7793s2.8203 2.4655 2.7939 4.8193c-0.0264 2.3539 3.0668 2.4117 4.5117 3.1816s2.2422 2.7841 4.29 1.3564 2.0608-5.8816 1.1465-7.8105-2.5434-1.4013-2.0957-3.5752-2.5322-2.6325-2.9629-4.3867-0.70178-3.5959-1.3564-5.3838-3.1465-2.7965-4.1192-3.6768-0.56388-0.3524-2.1885-0.37695z" style="paint-order:fill markers stroke"/>
   <path d="m653.45 162.76c-2.242 0.28478-2.4588 1.1047-4.8213 1.1826-2.3625 0.078-1.1227 2.7866 0.90234 4.1406s2.4247 3.6792 2.9404 5.374 2.4186 0.56927 2.0684 2.5664 2.0861 1.7609 3.5996 3.1162 3.5014 3.9181 4.749 6.1328-0.0454 4.2913 2.9102 5.2998c2.9556 1.0085 3.896-3.4962 3.695-5.7422s0.54041-3.4698 0.99643-5.9375-3.252-4.5426-4.7227-6.2031-3.5479-1.5346-4.4199-3.0781-0.91288-1.9493-2.0791-3.4033-3.5764-3.733-5.8184-3.4482z" style="paint-order:fill markers stroke"/>
   <path d="m790.93 142.63c-1.2496-0.0637-1.5761 1.0387-2.8618 1.2474s-4.0224 0.5229-4.0698 2.2501c-0.0474 1.7272 0.84015 2.0581 1.2524 3.1123s0.56048 1.6682 1.7612 2.7847 3.9417 1.8753 5.1558 0.92627 2.5235-1.3485 2.6111-2.6775c0.0876-1.329-1.1411-1.9094 0.52169-2.6038s0.40341-2.5955-0.78418-3.6411-2.3368-1.3348-3.5864-1.3984z" style="paint-order:fill markers stroke"/>
   <path d="m885.35 170.67c-1.5097-0.21652-3.4417 0.29855-4.5059 1.2812s-2.1591 2.5427-1.3987 3.7545 3.2652-0.39755 4.5574 0.42666 0.82662 3.8453 2.3291 3.9883 2.4623-2.0585 2.9199-3.3408 0.55782-2.5447-0.12207-3.73-2.27-2.1634-3.7798-2.3799z" style="paint-order:fill markers stroke"/>
   <path d="m823.77 177.38c-1.3955-0.14219-3.7892 0.54411-3.772 2.6333 0.0172 2.0892 1.9068 2.7791 3.9081 2.6587s4.7327 0.53589 6.8771-0.0298 1.0154-3.9982-0.67529-3.9438c-1.6907 0.0544-1.8954-1.2065-3.0806-1.2442-1.1852-0.0377-1.8619 0.068-3.2573-0.0742z" style="paint-order:fill markers stroke"/>
   <path d="m812.7 166.59c-0.84687 0.30049-1.5164 2.3168-1.0142 3.9995s-0.72115 4.3233 0.57715 6.0327 5.1464 0.0272 4.981-1.8764c-0.1655-1.9036 0.41588-2.2457 0.0474-3.5815s-0.89946-2.5171-1.9849-3.2856-2.0665-1.4038-2.6064-1.2886 0.84683-0.30049-4e-5 0z" style="paint-order:fill markers stroke"/>
   <path d="m883.95 221.38c-1.1112-0.0587-1.4508 1.1457-2.7041 1.2495s-3.8629 0.27599-3.9956 2.25 0.80294 3.5537 2.75 3.25 4.5164 0.61458 6.0009-0.51222 0.85695-3.4778 0.52301-4.772-1.463-1.4066-2.5742-1.4653z" style="paint-order:fill markers stroke"/>
   <path d="m888.17 211.88c-1.2024-0.14909-3.3206 1.4228-2.8696 3.4834s2.7199 2.3844 4.9595 1.8838 0.94028-5.4291-0.74902-5.3545c-1.6893 0.0746-0.13846 0.13639-1.3408-0.0127z" style="paint-order:fill markers stroke"/>
  </g>
 </g>
</svg>
