<svg enable-background="new 0 0 1000 1000" version="1.1" viewBox="0 0 1e3 1e3" xmlns="http://www.w3.org/2000/svg">
 <g fill="none" stroke="#000" stroke-width="25"/>
 <g>
  <path d="m582.05 9.3553c-13.188-0.29634-26.745 3.8764-39.899 11.178l-0.0114 0.0058-0.01 0.0058c-26.009 14.482-48.434 14.482-74.443 0-17.5-9.744-35.746-13.919-52.885-9.3537-17.139 4.5648-31.001 17.349-41.344 34.594-15.261 25.448-34.349 36.472-64.343 36.883-20.011 0.27476-37.915 5.7189-50.564 18.293-12.649 12.575-18.28 30.702-18.559 50.785-0.40867 29.494-11.287 48.323-36.967 63.46l-0.0171 0.01-0.0152 0.01c-17.259 10.228-30.186 23.933-34.865 41.276-4.679 17.343-0.36882 35.826 9.4697 53.342l6e-3 0.01 6e-3 0.0116c14.485 25.706 14.485 47.357 0 73.064-9.8508 17.483-14.159 35.976-9.483 53.323 4.6755 17.347 17.596 31.082 34.867 41.317 25.709 15.236 36.591 34.094 37 63.48 0.19839 14.3 3.1653 27.553 9.3708 38.562l-160.82 310.04 135.41-15.094 73.91 110.37 12.524-26.97s33.334-71.789 66.666-143.33c16.666-35.772 33.333-71.485 45.822-98.115 6.2447-13.315 11.447-24.364 15.067-31.981 0.6036-1.2698 0.87228-1.8133 1.3852-2.8864l6.0163-0.47785v-1.5825c8.0865-1.8296 16.195-5.0267 24.158-9.4466l0.01-6e-3 0.0114-4e-3c25.739-14.332 45.82-12.792 72.603 2.1203 1.8373 1.023 3.687 1.9473 5.5387 2.8438l185.97 319.77 47.21-121.59 131.89 17.071-161.48-298.51 4e-3 -4e-3c12.649-12.575 18.28-30.702 18.559-50.785 0.4083-29.386 11.309-48.337 36.967-63.46 17.283-10.187 30.222-23.912 34.899-41.265 4.677-17.353 0.37067-35.851-9.4716-53.373l-6e-3 -0.0116-6e-3 -0.01c-14.485-25.706-14.485-47.357 0-73.064 9.8508-17.483 14.159-35.976 9.483-53.323s-17.594-31.082-34.865-41.317l-8e-3 -4e-3 -6e-3 -4e-3c-25.602-15.139-36.58-34.01-36.988-63.472-0.27904-20.083-5.9094-38.21-18.559-50.785-12.649-12.575-30.551-18.019-50.562-18.293h-2e-3c-29.994-0.40996-49.173-11.453-64.32-36.847-10.295-17.259-24.15-30.063-41.294-34.629-4.286-1.1416-8.6411-1.7371-13.037-1.8359zm-51.465 458.91h-39.553l0.47365-166.18c-10.99 12.103-27.678 25.259-51.659 32.873-0.54592-39.291 0-40.104 0-40.104 13.715-4.8406 49.565-29.762 58.675-58.289h32.137z" color="#000000" stroke-width=".98231" style="-inkscape-stroke:none"/>
 </g>
</svg>
