<svg version="1.1" viewBox="0 0 196.11 153.24" xmlns="http://www.w3.org/2000/svg">
 <path d="m32.56 0.0065577c-7.6134 0.14778-15.267-0.26177-22.856 0.38985-1.2037 0.84548-3.142 0.36108-3.8311 1.9796-2.2926 1.8705-4.4899 4.2781-5.159 7.1819-0.55612 14.858-0.24292 29.739-0.3765 44.606-0.09456 25.419 0.04933 50.855-0.33699 76.263 0.1468 6.5854 0.22664 13.256 0.61077 19.877-0.09764 2.5091 2.7666 2.782 4.6347 2.691 30.907 0.41196 61.819 0.15354 92.729 0.23596 31.873 5e-5 63.745 1e-5 95.618 2e-5 2.9885-0.65677 2.2085-4.3979 2.4287-6.6923-0.0587-5.3228 0.41724-10.719-0.36744-15.996-0.43951-2.0368-2.4207-2.9557-4.3738-2.5396-23.01-0.0705-46.089 0.17175-69.055-0.21597-0.1765-11.406-0.24094-22.827 0.047-34.231 21.52-0.51098 43.057 0.0762 64.58-0.38924 3.8488 0.0588 7.1438-2.9648 8.6832-6.2927 0.54268-2.8571 0.83316-6.0774-0.3354-8.8032-2.2341-3.4488-6.1209-6.1175-10.356-5.9734-21.105-0.39006-42.218-0.20584-63.326-0.32859-0.81451-1.1418-0.93875-2.6033-1.8837-3.6628-1.1231-2.0451-3.0052-3.6958-4.9084-4.9338-1.0544-0.83064-2.4238-0.99367-3.5012-1.8094-3.2346-0.61951-6.6368-0.4568-9.9004-0.0978-1.6398 0.76576-3.2528 1.5949-4.8583 2.4189-1.6427 1.7996-3.6276 3.4183-4.5563 5.7902-1.3823 2.0473-1.3709 4.5594-2.0322 6.8434-0.59316 13.708-0.25161 27.445-0.41273 41.164-0.0105 3.4666-0.0211 6.9332-0.0316 10.4-1.9569 0.0371-3.9138 0.0737-5.8707 0.11015-0.53481-25.278-0.32305-50.661-0.47935-75.981-0.1513-14.183 0.14016-28.382-0.43402-42.555-0.22654-1.3953-0.91579-2.6938-1.6968-3.836-0.88558-1.6484-2.7077-2.5938-4.1009-3.8496-1.8641-1.1578-3.9521-1.7834-6.188-1.6348-12.699-0.21663-25.402-0.10064-38.103-0.13007zm46.514 3.8428c0.21132 0.06419-0.47924-0.09546 0 0zm-27.607 4.5718c6.455 0.08885 12.969-0.13648 19.366 0.28713 2.2941 0.44441 4.0136 2.7646 3.8502 5.0922-12.502 0.41388-25.03-0.17994-37.525 0.36819-2.577 0.23819-3.4384 3.1548-3.1621 5.3663-0.22308 21.012-0.29088 42.031-0.0075 63.042-0.11373 2.2313 0.66285 5.4065 3.3664 5.4831 12.337 0.49491 24.936-0.0117 37.116 0.3849 0.32651 13.103 0.3545 26.302 0.0316 39.402-13.964 0.29929-28.423 0.12145-42.582 0.11324-2.6228-0.0272-5.2047-0.0366-7.7636-0.13923-0.47-35.428-0.32873-70.943-0.17295-106.4 0.03908-4.26 0.06219-8.4967 0.17171-12.736 9.0856-0.25363 18.206-0.23602 27.312-0.25866zm-36.676 0.02413c0.91311 0.23361 0.23054 1.9953 0.49676 2.8817 0.29151 33.424 0.12848 66.965 0.11561 100.43-0.05063 5.3938 0.01502 10.859-0.23923 16.197-1.9804 0.0542-3.963 0.0221-5.9431-0.0347-0.41089-29.981-0.16542-59.969-0.21356-89.952 0.10642-8.8189-0.15569-17.757 0.32866-26.489 0.91887-2.094 3.2289-3.245 5.4548-3.0359zm20.16 7.2024c0.72386-0.54716 1.3225-0.4486 0.08716-0.03831zm33.051 6.7766c2.1692 0.01085 4.3403-0.01386 6.5074 0.09468 0.30988 12.325 0.19737 24.944 0.0291 37.316-2.8234 0.13115-5.7362 0.2274-8.1993 1.7853-3.055 1.7734-5.7859 4.2934-7.4449 7.4462-0.715 1.23-1.5646 2.511-1.3323 4.0842-1.1094 1.9677-0.94223 4.3511-1.0328 6.5557-4.4784 0.0127-8.9587 0.16491-13.436 0.0402-0.32377-19.015-0.02601-38.154-0.04889-57.217 8.3193-0.03515 16.639-0.09086 24.958-0.10458zm-7.5179 44.564c0.01279-0.0831 0.10102-0.25843 0 0zm14.064 1.3372c0.12535 3.7757 0.32491 7.8487-0.0371 11.43-2.8485 0.10609-5.8135 0.17185-8.5947 2e-3 -0.51047-1.6556-0.02277-3.5995 0.04827-5.3261 0.58966-0.90559 0.80443-1.9147 1.6597-2.6219 0.84153-1.4685 2.4365-2.5507 4.0885-2.7797 0.92535-0.55293 1.6978-0.89082 2.8354-0.70483zm31.954 0.92945c1.2299-0.10116 2.099 1.0381 3.3069 1.0433 1.8184 0.9545 2.8896 2.8115 3.3738 4.7525 0.72695 0.89004 0.52826 2.4077 0.3521 3.3416-3.3297 0.62282-7.0208-0.40225-10.128 1.2234-2.5981 1.6853-2.0914 5.7812 0.5625 7.1485 3.0278 1.1231 6.3943 0.25946 9.5495 0.64232 0.23607 7.762 0.16151 15.605 0.0353 23.409-4.7399 0.144-9.7334 0.0503-14.584 0.0786 0.10841-12.103-0.23075-24.386 0.21844-36.366 0.68237-1.1873 1.1014-2.509 2.1337-3.4579 1.0243-0.65481 2.0384-1.0492 3.1646-1.5514 0.5502-0.39148 1.3775-0.21378 2.0155-0.26424zm80.501 12.5c1.3034 1.0791-0.18318 3.2449-1.7593 2.9604-19.377 0.36528-38.762 0.17162-58.142 0.13785-1.6396-0.0452-3.3397-4e-3 -4.9474-0.16941 0.20758-1.2391-0.73802-3.8054 1.3131-3.2227 21.043-0.0505 42.087-0.10125 63.13-0.15228l0.21322 0.23435zm-80.784 38.6c2.4392 0.0221 4.8783 0.0441 7.3174 0.0662-0.0217 2.4671 0.20945 5.075-2e-3 7.4697-4.8257 0.1946-9.7752 0.12023-14.504 0.0254-0.0865-2.4835-0.0552-5.086-0.0613-7.6269 2.4165 0.0219 4.8329 0.0437 7.2494 0.0656zm-7.9567 16.084c29.616 0.0775 59.297-0.15975 88.872 0.25867 0.65689 0.77334 0.12066 2.6642 0.28299 3.8539-0.39932 1.4034 0.97246 4.6112-1.3282 4.0884-59.029 8e-3 -118.06 0.21948-177.09-0.016-0.02878-2.6646-0.10431-5.378 0.17698-7.9288 29.564-0.38373 59.424-0.19095 89.083-0.25619z" stroke-linejoin="round" stroke-width="11.975" style="paint-order:fill markers stroke"/>
</svg>
