<svg version="1.1" viewBox="0 0 225.6 216" xmlns="http://www.w3.org/2000/svg">
 <g>
  <path d="m117.57 12.161c-9.8399 0.97282-18.373 6.6082-27.467 9.9159-15.988 6.5139-31.822 13.412-47.709 20.149-8.6132 3.6138-16.414 10.168-19.493 19.219-2.002 6.2245-1.5301 12.934-1.1796 19.358 0.64504 11.822 3.5228 23.424 6.388 34.884 6.1404 24.558 18.837 47.464 35.977 65.988 10.969 11.855 24.619 21.105 38.936 28.567 8.88 4.6281 19.954 4.2879 28.718-0.0628 20.41-10.132 38.078-25.697 51.052-44.505 13.281-19.252 22.32-41.293 26.624-64.328 2.2725-12.164 3.0088-24.577 2.1689-36.887-0.7626-9.0877-7.9117-16.266-15.681-20.239-11.687-5.9301-24.073-10.338-36.046-15.635-11.723-4.9795-23.511-9.8327-35.174-14.895-2.2929-0.75353-4.6639-1.6366-7.1151-1.528z" style="paint-order:markers stroke fill"/>
  <path d="m85.507 111.66c0.91887 0.79731 0.55013 0.47835 0.82526 0.71764 7.8064 6.7891 15.645 13.628 23.45 20.421l45.452-52.306c2.6919-3.0978 5.9354-2.7906 8.209-0.79425 2.5934 2.2771 2.9929 5.0623 1.3261 6.9737l-0.79238 0.90864-43.714 50.416-2.0338 2.3456c-4.0478 4.6684-11.235 4.8928-16.023 0.73535l-23.556-20.453s-0.42916-0.37415-0.64411-0.5608c-2.6182-2.2735-2.0592-5.4269-0.20395-7.5011 1.8517-2.0702 5.3779-2.9217 7.7048-0.90261z" fill="#fff" stroke-linecap="round" stroke-linejoin="round" stroke-width="9.925" style="paint-order:markers stroke fill"/>
 </g>
</svg>
