<svg version="1.1" viewBox="0 0 225.6 216" xmlns="http://www.w3.org/2000/svg">
 <g>
  <path d="m117.57 12.161c-9.8399 0.97282-18.373 6.6082-27.467 9.9159-15.988 6.5139-31.822 13.412-47.709 20.149-8.6132 3.6138-16.414 10.168-19.493 19.219-2.002 6.2245-1.5301 12.934-1.1796 19.358 0.64504 11.822 3.5228 23.424 6.388 34.884 6.1404 24.558 18.837 47.464 35.977 65.988 10.969 11.855 24.619 21.105 38.936 28.567 8.88 4.6281 19.954 4.2879 28.718-0.0628 20.41-10.132 38.078-25.697 51.052-44.505 13.281-19.252 22.32-41.293 26.624-64.328 2.2725-12.164 3.0088-24.577 2.1689-36.887-0.7626-9.0877-7.9117-16.266-15.681-20.239-11.687-5.9301-24.073-10.338-36.046-15.635-11.723-4.9795-23.511-9.8327-35.174-14.895-2.2929-0.75353-4.6639-1.6366-7.1151-1.528zm0.46076 11.724c5.1099 1.2095 9.7239 3.9909 14.643 5.8007 17.495 7.5616 35.198 14.638 52.653 22.287 5.8579 2.8383 13.162 5.9153 14.664 12.966 1.143 12.086-0.0325 24.385-2.4117 36.357-2.9532 14.861-7.833 29.319-15.016 42.71-10.77 20.078-26.129 37.883-45.659 49.817-5.5347 3.3821-11.163 7.473-17.956 7.7507-3.7415 0.15296-7.4628-2e-3 -10.886-1.8207-12.563-6.675-24.607-14.608-34.505-24.793-13.225-13.608-22.985-30.433-29.778-48.122-4.9593-12.913-7.7365-26.585-9.7679-40.185-1.0439-6.9888-1.4962-14.219-0.12996-21.246 1.4351-4.9082 5.6587-8.5065 9.9218-11.018 10.796-5.1517 22.032-9.3366 32.964-14.194 10.489-4.6652 21.219-8.5282 31.63-13.381 3.1073-1.2131 6.2508-2.7685 9.6353-2.9285z" style="paint-order:markers stroke fill"/>
  <path d="m85.507 111.66c0.91887 0.79731 0.55013 0.47835 0.82526 0.71764 7.8064 6.7891 15.645 13.628 23.45 20.421l45.452-52.306c2.6919-3.0978 5.9354-2.7906 8.209-0.79425 2.5934 2.2771 2.9929 5.0623 1.3261 6.9737l-0.79238 0.90864-43.714 50.416-2.0338 2.3456c-4.0478 4.6684-11.235 4.8928-16.023 0.73535l-23.556-20.453s-0.42916-0.37415-0.64411-0.5608c-2.6182-2.2735-2.0592-5.4269-0.20395-7.5011 1.8517-2.0702 5.3779-2.9217 7.7048-0.90261z" stroke-linecap="round" stroke-linejoin="round" stroke-width="9.925" style="paint-order:markers stroke fill"/>
 </g>
</svg>
