<svg version="1.1" viewBox="0 0 256 256" xmlns="http://www.w3.org/2000/svg" xmlns:xlink="http://www.w3.org/1999/xlink">
 <g stroke-linejoin="round" stroke-width="11.975">
  <path d="m88.38-0.84035c-26.385 0.090027-52.774-0.17286-79.156 0.26856-1.3598-0.12677-2.5651 0.32635-3.6788 0.98453-1.2963-0.15363-1.9529 0.98349-3.0012 1.3577-0.93261 1.4222-2.3266 2.7078-2.3837 4.526-1.4765 1.3572-0.65135 3.7524-0.96714 5.5277-0.35115 42.526-0.12297 85.055-0.19277 127.58 0.072929 35.242-0.15904 70.487 0.21593 105.73 0.1549 1.5918-0.27066 3.5667 1.0213 4.7427 0.086648 2.0518 1.6171 3.8174 3.2748 4.828 0.77628 1.1289 2.3855 0.61978 3.3045 1.565 6.9134 0.68803 13.913 0.29514 20.859 0.46228 68.848 0.0989 137.7 0.15175 206.55 0.0211 4.9936-0.19352 10.077 0.26379 15.018-0.49577 0.93636-1.0056 2.691-0.42127 3.3892-1.7147 1.5715-0.82257 2.7674-2.464 3.1021-4.1794-0.17149-1.1228 1.3618-1.4414 0.95359-2.7222 0.46675-26.305 0.21711-52.619 0.3092-78.928-0.0513-51.7 0.14796-103.4-0.15421-155.1-0.23745-2.2815 0.3116-4.7923-0.59002-6.9437-1.0332-0.70468-0.31688-2.3774-1.4709-3.1015-0.61735-1.383-2.0602-2.0568-3.1504-2.9443-1.1117-0.001375-1.9238-0.6688-2.9022-1.026-10.466-0.61301-20.975-0.26504-31.458-0.40578-42.963-0.050759-85.925-0.025102-128.89-0.030483zm39.62 9.4443h119.24v238.79c-76.505-7e-3 -153.01 0.23757-229.52-2e-3 -2.9961-0.0298-6.0148-0.0356-8.9883-0.1425-0.17574-79.549 0.011438-159.1 0.027847-238.65h119.24z" style="paint-order:fill markers stroke"/>
  <path d="m95.94 11.518c-25.217 0.09385-50.44-0.16382-75.654 0.30198-2.6407 0.13662-5.4268 1.1922-6.8756 3.5495-1.5809 0.61197-0.85348 2.5716-1.6269 3.763-0.55328 13.269-0.25153 26.566-0.3782 39.846 0.0068 56.727-0.15568 113.46 0.13234 170.18 0.21783 2.7818-0.29158 5.7439 0.51195 8.4234 0.34931 1.1471 0.14632 2.6798 1.4734 3.25 1.823 2.6762 5.1798 3.4759 8.2355 3.346 39.492 0.41518 78.988 0.1958 118.48 0.27686 31.537-0.0723 63.078 0.18204 94.613-0.24139 2.9216 0.0165 6.1168-0.96534 7.7361-3.5844 1.5809-0.61198 0.85348-2.5716 1.6268-3.763 0.55329-13.269 0.25154-26.566 0.3782-39.846-7e-3 -56.727 0.15568-113.46-0.13234-170.18-0.21783-2.7818 0.29159-5.7439-0.51194-8.4234-0.34887-1.1476-0.14711-2.6798-1.4734-3.2506-1.7943-2.6158-5.0787-3.4548-8.0813-3.3964-35.02-0.41984-70.046-0.17545-105.07-0.25445-11.129 4.77e-4 -22.258 0.0021-33.387 3e-3zm-23.861 9.1256h51.277v214.71c-33.715-0.0297-67.433 0.29145-101.15-0.0452-2.0288 0.58245-1.3429-1.4841-1.4538-2.7531-0.13696-70.639 0.02037-141.28 0.0454-211.92h51.278zm111.84 0h51.277v214.71c-33.715-0.0297-67.433 0.29145-101.15-0.0452-2.0288 0.58245-1.3429-1.4841-1.4538-2.7531-0.13696-70.639 0.0204-141.28 0.0454-211.92h51.278z" style="paint-order:fill markers stroke"/>
  <path d="m28.043 107.65c-1.46 0.35841-3.431 1.0733-3.7067 2.7568-1.3994 1.5329-0.5916 3.9847-0.88972 5.8836 0.0091 10.584-0.26095 21.183 0.18551 31.758 0.07903 1.0214 0.84197 1.7171 1.0248 2.7036 1.1479 1.136 3.3048 2.1122 4.7574 0.97586 1.1968-0.0346 2.5648-0.0807 3.3911-0.99938 1.2772 0.21038 2.3095-0.45937 3.2704-1.0712 1.7559-0.36776 3.3836-1.1115 5.0922-1.5922 2.4789-1.1442 3.3651-3.9378 3.1582-6.4825 0.05981-8.7736 0.27739-17.576-0.21635-26.334-0.64742-1.0019-0.78745-2.5822-2.2321-2.8626-0.84707-0.83342-1.9955-1.2042-3.2382-1.125-0.88161-1.3565-2.7832-0.47018-3.836-1.5712-1.1251-0.28647-2.2719-0.31178-3.2271-1.0408-1.3097 7e-3 -2.3063-0.83178-3.5334-0.99938zm15.452 6.9146c0.1831 0.0936-0.41711-0.15165 0 0zm-10.643 3.5885c0.83707 0.81165 2.8524-0.0307 2.4763 1.4974 0.08028 7.1854 0.29771 14.513-0.1254 21.684-0.79528 0.15484-1.6909-3e-3 -2.3967 0.48639-0.1185-7.8318-0.26733-15.877 0.04579-23.668z" style="paint-order:fill markers stroke"/>
  <path d="m96.847 73.333c-1.7187 0.94297-2.7224 2.8275-4.2228 3.9468-1.5731 1.8478-3.7001 3.4395-5.2947 5.3748-2.0933 2.3651-4.7665 4.2573-6.6768 6.8343-1.0976 0.36466-1.3141 1.658-2.375 2.1813-1.6672 1.4418-3.0134 3.2873-4.6634 4.6194-1.5731 1.8478-3.7001 3.4395-5.2947 5.3748-2.1504 2.34-4.7599 4.3837-6.7721 6.8566-1.0137 0.4767-1.3073 1.6652-2.3453 2.2188-2.6106 2.3872-4.7755 5.1454-7.481 7.4172-0.92711 1.0622-3.3552 2.5599-1.7208 4.0614 1.5601 1.4485 2.8454 3.543 4.824 4.3471 1.8238-0.43633 2.9348-2.416 4.2595-3.667 0.51448-0.57584 1.2111-0.97626 1.698-1.5464 1.6305-2.0514 3.9786-3.6578 5.5767-5.8509 1.1021-0.38761 1.357-1.6764 2.422-2.2259 1.6359-1.444 2.9917-3.2447 4.6157-4.5749 1.5731-1.8478 3.7001-3.4395 5.2947-5.3748 0.57707-0.87282 1.6-1.186 2.0351-2.132 2.0915-1.6171 3.7025-3.8578 5.6603-5.4833 1.5731-1.8478 3.7001-3.4395 5.2947-5.3748 0.59417-0.87168 1.5993-1.2122 2.0636-2.1487 2.0628-1.633 3.6905-3.8376 5.6318-5.4666 1.0474-1.2539 2.7568-2.2999 3.3515-3.9394-1.2982-2.0551-3.3511-3.6555-5.1145-5.3502-0.25425-0.01743-0.51357-0.10202-0.76671-0.09777zm-16.402 16.671c-6e-3 -0.01129 0.03235-0.12726 0 0z" style="paint-order:fill markers stroke"/>
  <path d="m112.66 81.64c-8.0611 7.3139-15.412 15.384-23.406 22.778-2.0518 1.9747-4.0076 4.2809-6.1105 6.2998-8.8041 8.8462-17.553 17.859-26.645 26.352-7.2714 8.0653-15.38 15.39-22.742 23.4-0.66538 1.7285 1.568 2.8095 2.4183 4.039 1.0248 0.98319 2.9219 3.008 4.237 1.3626 0.54551-0.9523 1.6937-1.381 2.1949-2.4208 1.0986-1.4844 2.7331-2.5096 3.9146-3.8119 0.8834-0.84516 1.8297-1.6175 2.5619-2.7036 1.1061-1.3686 2.685-2.3745 3.7816-3.5842 0.81131-0.91924 1.7012-1.6396 2.5297-2.5272 0.75432-1.5328 2.5091-2.2934 3.4901-3.4926 0.81226-0.90122 1.6609-1.6409 2.5167-2.4839 1.0238-1.7086 2.8676-2.81 4.1337-4.2246 0.93723-0.77798 1.662-1.8061 2.6912-2.5216 0.72786-1.6771 2.592-2.5023 3.6485-3.7599 0.81226-0.90121 1.6609-1.6409 2.5167-2.4839 1.0353-1.7452 2.8358-2.7603 4.1337-4.2246 0.88549-0.84014 1.8261-1.6144 2.5582-2.6974 1.1061-1.3686 2.685-2.3745 3.7816-3.5842 0.81131-0.91924 1.7012-1.6396 2.5297-2.5272 0.75432-1.5328 2.5091-2.2934 3.4901-3.4926 0.81226-0.90122 1.6609-1.6409 2.5167-2.4839 1.0353-1.7452 2.8358-2.7604 4.1337-4.2246 0.93723-0.77798 1.662-1.8061 2.6912-2.5217 0.72786-1.6771 2.592-2.5023 3.6485-3.7599 0.81226-0.90121 1.6609-1.6409 2.5167-2.4839 1.0238-1.7086 2.8676-2.81 4.1337-4.2246 0.88549-0.84014 1.8261-1.6144 2.5582-2.6974 1.1061-1.3686 2.685-2.3745 3.7816-3.5842 0.66486-0.8532 2.3269-1.6503 1.4233-2.9802-1.4498-1.7568-2.9246-3.7503-4.9697-4.815-0.21948 0.02785-0.43895 0.05569-0.65842 0.08354z" style="paint-order:fill markers stroke"/>
  <path d="m92.524 125.53c-1.1786 1.4483-2.8574 2.4495-4.065 3.7655-0.89525 0.84974-1.8379 1.6508-2.5582 2.758-1.0901 1.3826-2.6893 2.3433-3.7915 3.5427-1.56 1.4054-2.7637 3.2682-4.4505 4.7042-0.85318 0.80575-1.8413 1.4953-2.5823 2.2704-1.5858 2.0403-3.5386 3.9654-5.5507 5.5736-0.745 0.9854-1.8713 1.6216-2.5309 2.776-1.3359 1.5628-2.9518 2.9125-4.4592 4.224-1.3668 1.3807-2.6662 3.1945-4.2649 4.5297-1.0879 0.86065-2.0754 1.6985-2.8849 2.7389-1.2094 0.93791-1.9677 2.479-3.2721 3.4318-0.98596 0.70862-1.7536 1.4456-2.5806 2.2563-0.54714 2.106 1.9797 3.4502 3.1343 4.8428 0.86809 0.96353 2.3911 2.2496 3.5099 0.84778 0.82392-0.92209 1.9769-1.4937 2.7073-2.3564 1.9768-2.3351 4.1299-4.5912 6.534-6.5025 1.189-1.2496 2.3295-2.8545 3.732-4.0793 0.94301-0.92494 2.0327-1.6577 2.8825-2.5451 0.82417-0.85312 1.5819-1.6836 2.3453-2.6683 1.018-1.267 2.5206-2.112 3.5118-3.2407 1.5181-1.3456 2.6553-3.1608 4.2711-4.5599 0.88828-0.87875 1.9732-1.5842 2.7617-2.4147 1.5858-2.0403 3.5386-3.9654 5.5507-5.5736 0.745-0.9854 1.8713-1.6216 2.5309-2.776 1.3359-1.5628 2.9518-2.9125 4.4592-4.224 0.71984-0.50451 1.5558-1.4906 0.80569-2.461-1.4126-1.9163-3.0623-3.8592-5.0365-5.1355-0.23639 0.0918-0.47277 0.18358-0.70916 0.27537z" style="paint-order:fill markers stroke"/>
  <path d="m200.45 73.539c-0.77392 1.2403-2.2194 1.796-3.0148 2.9041-0.96992 0.72123-1.6196 1.787-2.6646 2.4499-1.012 1.8429-2.9599 3.0025-4.2976 4.4833-0.93511 0.75485-1.6227 1.805-2.6646 2.4746-0.76795 1.662-2.6051 2.5436-3.6751 3.8069-0.81182 0.90929-1.678 1.6403-2.5229 2.5025-0.78297 1.5122-2.5129 2.32-3.4969 3.5173-0.81345 0.88695-1.6536 1.636-2.4759 2.513-1.2853 1.0246-2.1376 2.8743-3.7921 3.6262-0.66593 1.0333-1.7102 1.7284-2.4709 2.6454-1.1966 1.0102-1.9472 2.7135-3.5266 3.3595-0.67605 1.0283-1.7162 1.7184-2.4678 2.6473-1.4936 1.3569-2.6746 3.3142-4.534 4.3416-0.66333 1.0391-1.7098 1.7408-2.4802 2.6522-1.0215 0.84822-1.6146 2.1924-2.8069 2.966-0.88599 1.7792 1.7416 2.777 2.5885 4.0842 0.96767 0.87085 2.3991 3.0092 3.7253 1.4587 15.621-15.385 31.194-30.829 46.554-46.473 0.61791-1.7492-1.7526-2.6498-2.5524-3.9136-1.0304-0.68418-1.9566-2.9625-3.4241-2.0461z" style="paint-order:fill markers stroke"/>
  <path d="m216.88 81.543c-1.8039 0.48576-2.3543 2.534-3.9158 3.4196-1.6765 1.4075-3.0319 3.3202-4.6739 4.6516-1.7249 2.0648-4.1252 3.7633-5.7556 6.0278-3.5326 2.7584-6.1799 6.4252-9.586 9.2989-1.5076 1.4008-2.7877 3.09-4.3243 4.3391-1.4244 1.7398-3.4543 3.1756-4.9294 4.9755-2.5211 2.908-5.7533 5.2166-8.0934 8.3203-2.8694 2.169-4.9136 5.1646-7.6962 7.4183-2.3914 2.2754-4.4245 4.8351-6.9567 6.9468-1.5076 1.4008-2.7877 3.09-4.3243 4.3391-1.5731 1.8478-3.7001 3.4395-5.2947 5.3748-2.4549 2.7105-5.4931 4.9738-7.7282 7.921-2.0034 1.3641-3.4738 3.54-5.2748 4.9975-1.9046 1.0005-0.0593 3.1056 0.92661 4.0681 1.2778 1.1023 2.7981 3.5406 4.7467 2.6113 1.1608-1.8636 3.2666-3.0878 4.6498-4.8787 0.53989-0.9124 1.6399-1.1615 2.0322-2.1411 2.4365-1.8934 4.3278-4.5037 6.6312-6.4115 1.4417-1.8675 3.6423-3.3102 5.0458-5.3199 1.097-0.36546 1.3137-1.6579 2.3744-2.1813 1.6672-1.4418 3.0134-3.2873 4.6634-4.6194 1.5731-1.8478 3.7001-3.4395 5.2947-5.3748 0.59418-0.87168 1.5993-1.2122 2.0636-2.1487 2.0628-1.633 3.6905-3.8376 5.6318-5.4666 1.4244-1.7398 3.4543-3.1756 4.9294-4.9755 0.65861-1.067 1.8424-1.4702 2.4004-2.5313 2.0915-1.6171 3.7025-3.8578 5.6603-5.4833 1.4777-1.7986 3.6008-3.268 5.0018-5.2389 1.0986-0.36903 1.3152-1.6706 2.3852-2.1918 1.696-1.4844 3.2111-3.2829 4.7689-4.8286 0.94726-0.64818 1.4374-1.7336 2.4684-2.3935 1.5463-1.3883 2.8354-3.0965 4.3856-4.3571 1.5731-1.8478 3.7001-3.4395 5.2947-5.3748 0.56203-0.81195 1.4535-1.2143 2.0407-1.9253 1.791-1.2117-0.25161-3.0425-1.1869-4.0371-1.1331-0.95672-2.0789-2.646-3.6553-2.8304zm-9.3311 20.497c-0.0147 0.052 0.0282-0.14155 0 0zm-6.4988 6.4988c-0.14155 0.0282 0.052-0.0147 0 0zm-12.087 0.90594c0.0305-0.0109 0.10809-0.0155 0 0zm-0.42388 11.605c-0.0147 0.052 0.0282-0.14155 0 0zm-6.4988 6.4988c-0.14155 0.0282 0.052-0.0147 0 0z" style="paint-order:fill markers stroke"/>
  <path d="m196.81 125.62c-4.1974 3.1855-7.5169 7.4291-11.559 10.801-2.0487 1.9549-3.977 4.2546-6.0712 6.2581-8.5307 8.78-17.418 17.23-25.754 26.194-0.59948 1.2499 0.97361 1.5464 1.3342 2.4548 1.7324 0.71937 2.8666 3.7964 5.0699 2.8905 0.59193-0.70678 1.4039-1.0977 1.9381-1.8088 0.9792-0.83868 1.7632-1.7511 2.5965-2.802 1.0257-1.2595 2.5087-2.1373 3.5043-3.2618 0.81226-0.90121 1.6609-1.6409 2.5167-2.4839 1.0238-1.7086 2.8676-2.81 4.1337-4.2246 0.88549-0.84014 1.8261-1.6144 2.5582-2.6974 1.1061-1.3686 2.685-2.3745 3.7816-3.5842 0.81131-0.91923 1.7012-1.6396 2.5297-2.5272 0.7494-1.5375 2.5081-2.2966 3.4901-3.4926 0.81226-0.90122 1.6609-1.6409 2.5167-2.4839 1.0238-1.7086 2.8676-2.81 4.1337-4.2246 0.93723-0.77798 1.662-1.8061 2.6912-2.5217 0.72786-1.6771 2.592-2.5023 3.6485-3.7599 0.8129-0.87142 1.6194-1.6345 2.4629-2.4734 0.60474-1.8142-1.6241-3.0035-2.5334-4.2865-0.89594-0.71555-1.683-2.1115-2.9882-1.9666z" style="paint-order:fill markers stroke"/>
  <path d="m227.72 107.65c-1.1171 0.38138-2.1506 0.9405-3.3694 1.0217-1.1463 1.0171-2.8847 0.48081-3.992 1.5551-1.129 0.12768-2.4046 0.19255-3.1875 1.0656-1.1545-0.12051-2.2268 0.2801-2.974 1.0755-3.0568 1.4307-2.4265 5.4042-2.5722 8.1571 0.0604 7.8974-0.29982 15.822 0.24295 23.703 0.38843 2.5304 2.8379 4.2178 5.2525 4.4443 1.3268 0.90469 3.0299 0.76464 4.2147 1.8335 0.99889 0.28803 2.068-0.0111 2.7704 0.88242 1.177 0.41379 2.4701 0.11211 3.5192 0.85396 1.4446-0.0255 3.3521-0.54995 3.9542-2.005 0.1833-1.0393 1.0866-1.8375 0.85694-3.0241 0.25208-11.445 0.25755-22.906-3e-3 -34.351 0.10932-1.362-0.75487-2.3807-1.2278-3.536-0.91793-0.8805-2.205-1.5942-3.4852-1.6757zm-4.5495 10.51c0.18424 7.8533 0.089 15.751-0.11757 23.577-0.79394-0.64821-2.7046 0.29596-2.3267-1.255-0.25831-7.2219-0.30184-14.501 0.0928-21.721 0.75848-0.0653 1.6849-0.1756 2.3515-0.60149z" style="paint-order:fill markers stroke"/>
 </g>
</svg>
