<svg version="1.1" viewBox="0 0 240.85 205.4" xmlns="http://www.w3.org/2000/svg">
 <g transform="translate(-7.5494 -27.375)" stroke-linejoin="round" stroke-width="11.975">
  <path d="m28.647 72.35c-5.9152 0.15182-11.885-0.26645-17.769 0.38614-1.8585 0.78539-3.183 2.7276-3.0507 4.8397-0.47472 20.447-0.17524 40.907-0.27219 61.36 0.067937 30.131-0.15125 60.266 0.28147 90.394 0.31864 1.5939 1.5012 3.4337 3.4394 3.2215 17.275 0.39243 34.562 0.0268 51.842 0.0882 4.9681-0.0942 10.002 0.13945 14.93-0.15621 1.5101-1.2251 2.8549-3.2219 2.4591-5.3132-0.1834-5.0351 0.40257-10.155-0.35204-15.143-0.74891-0.87314-0.66976-2.4341-2.0996-2.6411-1.9746-1.2836-4.6552-0.54904-6.9245-0.80007-2.027-0.0803-4.319 0.1254-6.1949-0.21478-0.4674-16.541-0.16253-33.099-0.24147-49.646 0.02366-8.7026 0.01969-17.406 0.13937-26.108 1.0037 1.3792 2.3846 2.4641 3.2345 3.8923 1.2718 0.77822 2.0866 2.2983 3.2438 3.315 1.0037 1.225 2.1501 2.4714 3.1176 3.6522 0.28195 0.91086 1.1807 1.2963 1.742 1.9988 2.1245 2.0994 4.1511 4.6403 6.1801 6.8868 0.34549 1.0732 1.5982 1.2982 2.0687 2.3649 2.3647 2.4024 4.3716 5.1941 7.2346 7.0509 0.99787 1.0021 2.6579 0.66489 3.6597 1.6702 2.2258 0.5415 4.6628 0.31104 6.6906-0.69988 2.6066-0.81677 4.8282-2.8183 6.4895-4.9449 0.46635-0.98496 1.3403-1.8217 1.2222-3.0433 1.4377-1.5864 0.85733-4.1056 0.80569-6.0724-0.15551-1.2576-1.0444-2.2112-1.0105-3.5186-1.3578-1.6868-2.6795-3.5756-4.3154-5.1163-2.5054-2.983-5.3387-5.7846-7.6617-8.8782-0.60723-0.7716-1.5304-1.0975-2.0347-2.0365-1.928-2.0556-3.9532-4.1909-5.466-6.4926-0.59471-0.35337-0.96559-1.053-1.6411-1.3304-2.8764-3.2225-5.9449-6.4082-8.5446-9.797-0.80488-0.56408-1.618-1.4831-2.1559-2.3546 11.426-0.62939 22.939-4.2e-4 34.377-0.70235 0.96783-0.0916 1.3222-1.1244 2.3348-1.1071 0.71231-0.75057 1.8893-0.83376 2.315-1.8156 1.3447-0.94999 1.5569-2.7855 2.5767-3.9654 0.24755-1.6863 0.85576-3.3165 1.1046-4.9777-0.83766-1.7548-0.58881-3.9813-1.8651-5.5179-0.83771-2.0041-2.6711-3.6372-4.5216-4.7265-0.75154-0.83637-1.945-1.0616-3.0743-1.1603-2.5999-1.1828-5.6567-0.4744-8.4332-0.74567-12.607-0.08101-25.215-0.03945-37.822-0.05817-0.22428-2.7447 0.47463-5.712-0.54146-8.3274-0.73618-0.94384-0.70335-2.8533-2.3527-2.776-1.5474-1.3503-3.9607-0.57325-5.8557-0.86558-9.095-0.10639-18.191-0.05971-27.287-0.06821zm7.3137 8.6188c6.3906 0.03558 12.785-0.02235 19.157 0.29022 0.4626 25.531 0.19693 51.148 0.2764 76.712-0.09785 16.816 0.19184 33.69-0.29435 50.469-12.708 0.17466-25.549 0.16345-38.258-0.0124-0.51786-32.719-0.33341-65.496-0.29756-98.237 0.06391-9.6415 0.03321-19.311 0.28766-28.934 6.361-0.30785 12.748-0.25361 19.129-0.28775zm50.233 12.071c7.325 0.10261 14.735-0.17679 22.001 0.31745 0.93184 0.49771 2.3182-0.0665 2.7283 1.2444 0.94886 1.7074 0.90813 4.4518-1.0885 5.4474-1.6917 1.0893-4.0563 0.21434-6.0248 0.49566-13.013-0.0291-26.029 0.0848-39.04-0.15656-0.10599-2.3728-0.12326-4.7537 0.013-7.1256 7.0487-0.36655 14.283-0.15314 21.412-0.22277zm32.463 9.3595c-0.37898 0.22569 0.0946-0.069 0 0zm-53.662 6.4839c1.4541 0.28187 2.3883 1.4581 3.0724 2.5965 1.483 0.89007 2.42 2.6426 3.7667 3.8057 1.5784 1.642 2.8552 3.5384 4.3366 5.1603 1.509 1.2697 2.7896 3.0656 4.2809 4.4632 3.6409 4.2542 7.5371 8.2756 11.198 12.491 3.0795 3.7978 6.7848 7.1125 9.6871 11.028-0.0414 1.145 1.7086 2.161 0.60025 3.2748-0.66981 0.89815-0.53621 2.7219-2.0965 2.7054-1.0151-9e-3 -1.8741 1.2076-2.7525 0.19244-0.86731-0.1981-1.6015-0.10492-2.0891-0.94306-1.5782-1.0955-2.7166-2.9661-4.1526-4.3304-3.2347-3.8936-6.8384-7.4401-10.015-11.379-0.45869-1.2542-1.7463-1.5829-2.3892-2.7147-2.2745-2.4005-4.6129-4.8999-6.4975-7.5421-1.3287-0.84819-2.1747-2.4698-3.4058-3.5207-1.1822-1.4954-2.7667-2.8064-3.7056-4.4304-0.19172-3.6314-0.32658-7.3164 0.09715-10.858l0.03651-6.2e-4zm24.369 25.808c-0.0051-8e-3 -0.01137-0.0349 0 0zm-11.431 74.866c0.12929 0.41137-0.11849-0.27449 0 0zm-33.944 7.3639c9.0977 0.10474 18.215-0.21626 27.301 0.27042 0.29706 2.3128 0.35138 4.6631 0.1974 6.9895-13.832 0.47002-27.686 0.16296-41.527 0.21525-4.4404-0.0594-9.054 0.0318-13.392-0.17874-0.0084-2.3197-0.27432-4.9876 0.30755-7.0619 8.9515-0.33438 18.091-0.18101 27.113-0.23453zm-35.458 13.543c-0.17559-0.0494-0.49109-0.492 0 0zm0.19554 0.065c-0.011896 8e-3 -0.10014-0.0299 0 0z" style="paint-order:fill markers stroke"/>
  <path d="m33.551 88.509c-2.918 0.27831-6.7158-0.7057-8.9004 1.7871-0.17359 1.0925-1.0943 1.772-1.0448 2.9525-0.32009 5.4778-0.55607 11.05 0.21682 16.492 0.64211 1.0918 1.1267 2.504 2.6101 2.8131 3.6915 0.71058 7.5474 0.18799 11.3 0.33413 2.9457-0.24879 6.1698 0.46354 8.9313-0.79639 0.84679-0.67238 1.0208-1.8186 1.6157-2.6306 0.3236-5.6212 0.42099-11.301-0.0037-16.917-0.34668-0.89262-0.76046-1.7501-1.2611-2.5551-2.6446-2.2218-6.4406-1.1778-9.5965-1.4813-1.2892-0.0048-2.5784-5.2e-4 -3.8676 0.0017zm2.4307 8.3323c1.0185 0.2113 2.5744-0.3853 3.3775 0.40842 0.36731 2.2924 0.01161 4.643 0.05755 6.9573-2.2446 0.0453-4.4893 0.0908-6.7339 0.13676 0.11626-2.4119-0.23993-5.0977 0.26423-7.3639 1.0049-0.13476 2.0228-0.12745 3.0347-0.13861zm11.629 13.532c-0.35033 0.15709-0.16356-5e-3 0 0z" style="paint-order:fill markers stroke"/>
  <path d="m39.851 120.79c-0.70291 2.3323-0.08929 4.9316-0.29641 7.3645 0.68653 1.8794 3.2751 0.64713 4.802 1 1.4392-0.14878 4.4566 0.72311 4.1683-1.6337-0.17636-2.2253 0.36286-4.5919-0.28898-6.7234-2.4375-0.70484-5.1426-0.0904-7.6813-0.29641-0.23453 0.0963-0.46906 0.19266-0.70359 0.28899z" style="paint-order:fill markers stroke"/>
  <path d="m39.851 136.64c-0.70291 2.3323-0.08929 4.9316-0.29641 7.3645 0.68653 1.8794 3.2751 0.64713 4.802 1 1.4392-0.14878 4.4566 0.72312 4.1683-1.6337-0.17636-2.2253 0.36286-4.5919-0.28898-6.7234-2.4375-0.70485-5.1426-0.0904-7.6813-0.29642-0.23453 0.0963-0.46906 0.19266-0.70359 0.28899z" style="paint-order:fill markers stroke"/>
  <path d="m23.692 136.64c-0.70302 2.3393-0.08936 4.9456-0.29641 7.3855 0.71959 1.9082 3.3426 0.58508 4.9065 0.90168 1.4544-0.23222 4.4465 0.68328 4.2393-1.6867-0.12087-2.1765 0.49414-4.477-0.10611-6.5726-2.5395-0.75126-5.3849-0.0956-8.0396-0.31684-0.23453 0.0963-0.46906 0.19266-0.70359 0.28899z" style="paint-order:fill markers stroke"/>
  <path d="m23.692 120.79c-0.70302 2.3393-0.08936 4.9456-0.29641 7.3855 0.71959 1.9082 3.3426 0.58507 4.9065 0.90168 1.4544-0.23222 4.4465 0.68328 4.2393-1.6867-0.12087-2.1765 0.49414-4.477-0.10611-6.5726-2.5395-0.75125-5.3849-0.0956-8.0396-0.31683-0.23453 0.0963-0.46906 0.19266-0.70359 0.28899z" style="paint-order:fill markers stroke"/>
  <path d="m153.63 88.509c-2.9474 0.27572-6.7976-0.72091-8.9604 1.8707-0.41891 1.2125-1.3018 2.2614-1.1058 3.672-0.0658 5.2554-0.30187 10.56 0.22401 15.789 0.80174 1.2448 1.7522 3.1761 3.6955 2.9524 6.0714 0.0638 12.197 0.38529 18.238-0.30075 1.2895-0.0861 1.8507-1.2559 2.0922-2.2989 1.1213-2.0799 0.58702-4.689 0.82525-6.9832-0.0769-3.7558 0.27635-7.6173-0.53317-11.305-0.73739-0.72545-0.5503-2.101-1.7562-2.5012-3.3038-1.5-7.1161-0.63183-10.629-0.89918-0.69679 0.0013-1.3936 0.0025-2.0904 0.0038zm2.357 8.3323c0.98025 0.1461 2.4529-0.22122 3.1894 0.32488 0.22727 2.3858 0.1071 4.7874 0.13985 7.1801-2.2868-0.0138-4.5568 0.0454-6.7822-0.094 0.0405-2.325-0.47012-4.9398 0.28528-7.1795 1.0028-0.3491 2.1239-0.18383 3.1677-0.23144zm-11.737 13.543c-0.0794-0.029-0.27343-0.25377 0 0z" style="paint-order:fill markers stroke"/>
  <path d="m157.54 45.399c-1.4225-0.08967-2.7585 0.32485-3.9988 0.90718-1.1723-2.38e-4 -2.5169 0.1034-3.323 1.0093-1.3396-0.10565-1.9493 1.1397-3.1337 1.4264-2.2039 1.437-4.5082 3.0523-5.9344 5.2896-0.40448 1.2897 1.2329 1.4383 1.6547 2.3379 1.6563 0.74406 3.1584 3.2924 5.2884 1.995 1.1677-0.89496 2.5146-1.5983 3.5928-2.5384 0.57122-0.37412 1.6232-0.3312 2.0309-1.0916 1.4467 0.23082 2.7641-0.93185 4.1281-0.70111 1.5919 0.87719 3.5853 0.2604 4.9889 1.4759 1.3304 0.0831 2.3554 0.97331 3.2246 1.8583 1.5437 0.41408 2.9435 3.4001 4.4134 1.3659 0.69752-0.95065 1.8086-1.4719 2.4659-2.3318 0.70679-0.83839 2.1362-1.6434 1.5724-3.0074-0.46872-0.75983-1.1325-1.3254-1.8119-1.8719-1.1514-0.51703-2.0362-1.8359-3.3564-2.2444-0.75363-0.77398-1.8243-1.0179-2.5625-1.7797-1.127-0.04322-2.032-0.53225-3.0452-0.93626-1.4724-0.19695-2.8487-0.46536-4.1826-1.0526-0.66445-0.1061-1.3403-0.11782-2.0118-0.11015zm3.4066 0.90842c0.0164 0.02873-0.0109-0.01269 0 0z" style="paint-order:fill markers stroke"/>
  <path d="m157.1 27.382c-1.9973 0.08117-3.7685 1.2784-5.8341 0.92731-2.3669-0.16437-4.4102 1.1019-6.6714 1.5288-1.2746 0.74713-2.7733 0.85993-4.026 1.6411-1.1049 0.06029-1.6696 1.179-2.7871 1.2116-0.79882 0.85764-2.0524 0.79028-2.8632 1.6343-1.3955 0.11104-2.0299 1.6214-3.3324 2.0925-1.6117 1.1855-3.0994 2.6142-4.8861 3.475-1.1068 1.7738-3.1657 2.9358-4.461 4.6634-1.2793 0.88076-1.0617 2.5765 0.17883 3.3738 1.149 0.71945 1.9674 1.6649 2.9975 2.5099 2.5471 1.2946 4.3188-1.8234 6.0308-3.1366 1.449-1.4013 3.0746-2.6617 4.7576-3.7074 0.9743-0.26552 1.4988-1.1195 2.3744-1.5569 0.478-0.61762 1.6321-0.47223 2.0019-1.3546 1.3021-0.37531 2.2446-1.3537 3.5848-1.6052 1.0287-0.70289 2.3445-0.68485 3.3905-1.388 1.9636-0.0754 3.7595-1.2064 5.7011-1.0031 3.747-0.06442 7.5894-0.31506 11.284 0.30136 1.2266 0.97165 3.0291 0.16811 4.1392 1.349 1.3289 0.14937 2.405 0.99202 3.677 1.302 0.88766 0.81597 2.1478 0.89304 2.922 1.8193 0.89247 0.14743 1.5668 0.4136 2.1689 1.1176 0.93883 0.59336 1.9384 0.95431 2.5786 1.849 1.7758 0.7583 3.271 2.3164 4.5285 3.5866 1.4986 1.0061 2.7023 2.5922 4.3515 3.4208 1.2014 0.33252 1.6195-1.0685 2.5427-1.4443 0.60909-0.89743 1.6124-1.4949 2.2364-2.3824 1.4755-0.72413 0.98503-2.9856-0.49567-3.3719-2.113-2.0173-4.4011-3.8354-6.6225-5.6986-1.7727-0.97985-3.3262-2.458-5.0854-3.3905-0.52078-0.98782-1.8335-0.62367-2.4728-1.5223-1.0893-0.29094-1.6614-1.3151-2.8663-1.3286-2.821-1.4681-5.8068-2.5346-8.8861-3.2921-2.4322-1.2471-5.3746-0.26357-7.8651-1.4313-0.75178-0.15819-1.5234-0.21822-2.2908-0.18936zm-23.747 8.0705c-8.4e-4 -0.0069 0.0124-0.04589 0 0z" style="paint-order:fill markers stroke"/>
  <path d="m148.73 72.35c-5.9152 0.15182-11.885-0.26645-17.769 0.38614-0.78747 0.72469-2.2675 0.67331-2.4994 2.0087-1.358 2.256-0.80113 5.0197-0.99131 7.55-0.36554 41.223 0.0897 82.501-0.33233 123.69-0.1686 1.036 0.45624 2.9606-1.1885 2.5542-2.9377 0.36918-6.5975-0.7922-8.9612 1.4897-1.9756 2.9444-1.1402 6.7915-1.3892 10.134 0.17405 3.2868-0.34272 6.729 0.46464 9.927 0.50081 1.4024 1.7252 2.6647 3.3892 2.4604 17.91 0.4105 35.831 0.11967 53.746 0.17934 7.0026-0.15139 14.054 0.21276 21.028-0.41139 1.0857-0.55092 1.393-1.8745 2.0173-2.7748 0.31733-5.58 0.45373-11.222-0.0625-16.794-0.10271-2.4193-2.2404-4.2412-4.6302-4.1029-2.2718-0.14086-4.5598 0.0375-6.8228-0.25847-0.51367-11.784-0.16526-23.661-0.27861-35.484 0.0989-14.004-0.21286-28.021 0.27551-42.017 2.1635 1.8976 4.3366 3.7988 6.5483 5.6411 0.48157 0.79119 1.1765 1.3884 1.8434 2.0347 1.7687 1.2742 3.2549 2.9559 5.0316 4.2587 4.536 4.0582 8.9925 8.2435 13.563 12.22 1.1473 1.2182 2.5308 2.1859 3.552 3.4226 0.82728 1.2445 2.6202 1.5477 3.6528 2.7432 1.4364 1.2405 3.3807 1.2958 4.9202 2.2488 1.8638 0.54287 3.844 0.15418 5.5198-0.6974 1.522-0.0108 2.475-1.3282 3.8509-1.7822 1.342-1.0785 2.5743-2.3219 3.4684-3.7197 0.39087-0.87282 1.1466-1.68 1.0452-2.7667 1.3149-1.9737 1.1603-4.7511 0.40409-6.927-0.78409-0.94391-0.25795-2.5099-1.4548-3.2352-1.2982-2.3162-3.2783-4.1195-5.3466-5.6932-4.5772-4.1092-8.9806-8.4021-13.622-12.438-1.7823-1.4844-3.5154-3.1881-5.1401-4.746-0.64446-1.0462-2.0444-1.3757-2.7855-2.4539-2.8251-2.4914-5.669-5.1676-8.3166-7.7336-0.44443-0.99511-1.8421-1.0674-2.2865-2.1058 13.505-0.59097 27.093-0.0471 40.616-0.66523 1.1114 0.042 1.5358-1.1266 2.6188-1.1392 0.71231-0.75057 1.8893-0.83376 2.315-1.8156 1.3447-0.94999 1.5569-2.7855 2.5767-3.9654 0.24755-1.6863 0.85576-3.3165 1.1046-4.9777-0.83766-1.7548-0.58881-3.9813-1.8651-5.5179-0.83771-2.0041-2.6711-3.6372-4.5216-4.7265-0.75154-0.83637-1.945-1.0616-3.0743-1.1603-2.6812-1.1709-5.807-0.46718-8.6608-0.73614-15.242-0.20786-30.497 0.1946-45.731-0.30594-0.46571-3.4452 0.86783-7.8552-2.0631-10.574-1.6517-1.4688-4.0721-1.0036-6.1547-1.1515-9.2005-0.11435-18.402-0.06337-27.603-0.07309zm7.3137 8.6188c6.3906 0.03558 12.785-0.02235 19.157 0.29022 0.4626 25.531 0.19693 51.148 0.2764 76.712-0.0978 16.816 0.19185 33.69-0.29434 50.469-12.708 0.17466-25.549 0.16345-38.258-0.0124-0.51786-32.719-0.33341-65.496-0.29756-98.237 0.0639-9.6415 0.0332-19.311 0.28766-28.934 6.361-0.30785 12.748-0.25361 19.129-0.28775zm54.171 12.071c8.6512 0.09434 17.392-0.16622 25.983 0.31745 0.93184 0.49771 2.3182-0.0665 2.7283 1.2444 0.94886 1.7074 0.90813 4.4518-1.0885 5.4474-1.6917 1.0893-4.0563 0.21434-6.0248 0.49566-15.725-0.0973-31.502 0.21978-47.194-0.24752-0.2286-2.3238-0.25834-4.6923 0.0179-7.008 8.4643-0.4566 17.062-0.15078 25.578-0.24938zm36.446 9.3595c-0.37898 0.22569 0.0946-0.069 0 0zm-61.387 6.5353c2.5242 0.6527 4.1035 3.095 6.0934 4.5631 0.60416 1.2781 2.2182 1.7371 3.0598 2.9178 2.6126 2.493 5.5589 4.8129 8.067 7.3149 0.64554 0.82586 1.2801 1.6173 2.2333 2.1293 2.4069 2.0948 4.8255 4.1843 7.1943 6.3391 0.55201 0.54428 0.85049 1.3257 1.6875 1.6262 3.2196 2.9606 6.5558 5.9057 9.7587 8.8212 0.56478 1.2324 2.1316 1.638 2.9103 2.7958 1.3971 1.1706 2.9955 2.3025 3.4412 4.1795 1.0648 0.82396 0.36402 2.0995-0.25248 2.9276 0.0486 1.4406-1.4121 1.9935-2.5854 2.1887-0.51285 0.38858-0.9301 0.83484-1.4598 0.17637-0.87223-0.50484-1.9089-0.26949-2.393-1.263-1.6789-0.76566-2.803-2.5138-4.3545-3.5592-3.7441-3.4077-7.474-6.8697-11.301-10.214-0.89961-0.80402-1.7659-1.5393-2.5093-2.4226-0.69756-0.94697-1.9605-1.3699-2.6652-2.4449-1.9845-1.3585-3.8411-3.1378-5.505-4.7624-1.1704-1.2636-2.7767-2.2421-3.9475-3.6043-2.7515-2.5155-5.7188-4.7987-8.2957-7.5058 0.14398-3.3161-0.2884-6.7329 0.25557-9.9951 0.1522-0.14321 0.35832-0.22382 0.56807-0.20853zm31.358 16.412c0.0981 0.054-0.10001-0.0472 0 0zm-29.96 7.2085c-8e-3 2.3e-4 -0.0397-0.02 0 0zm14.701 13.028c-0.0219 4e-3 -0.1529-0.0703 0 0zm-45.317 71.338h31.125c0.62011 2.37 0.11523 4.9199 0.20359 7.349-20.912-0.0137-41.909 0.26353-62.769-0.0433-0.11201-2.3493-0.0789-4.711 0.14913-7.0526 10.397-0.37193 20.867-0.19078 31.291-0.2531zm39.527 13.528c-0.42792 0.16415-0.21108 0.0542 0 0zm-78.766 0.086c-0.0935 6e-3 -0.38272-0.13133 0 0z" style="paint-order:fill markers stroke"/>
  <path d="m159.61 120.79c-0.61647 2.2987-0.27151 4.8663-0.10581 7.2525 0.7893 1.7014 3.1589 0.84787 4.664 1.112 1.4935-0.20392 4.685 0.82365 4.4326-1.6337-0.17636-2.2253 0.36286-4.5919-0.28898-6.7234-2.543-0.70537-5.3545-0.0874-7.9982-0.29641-0.23453 0.0963-0.46906 0.19266-0.70359 0.28899z" style="paint-order:fill markers stroke"/>
  <path d="m159.61 136.64c-0.61647 2.2988-0.27151 4.8663-0.10581 7.2525 0.7893 1.7014 3.1589 0.84787 4.664 1.112 1.4935-0.20391 4.685 0.82366 4.4326-1.6337-0.17636-2.2253 0.36286-4.5919-0.28898-6.7234-2.543-0.70538-5.3545-0.0874-7.9982-0.29642-0.23453 0.0963-0.46906 0.19266-0.70359 0.28899z" style="paint-order:fill markers stroke"/>
  <path d="m143.77 136.64c-0.70291 2.3323-0.0893 4.9316-0.29641 7.3645 0.68653 1.8794 3.2751 0.64713 4.802 1 1.4392-0.14878 4.4566 0.72312 4.1683-1.6337-0.17635-2.2253 0.36287-4.5919-0.28898-6.7234-2.4375-0.70485-5.1426-0.0904-7.6813-0.29642-0.23453 0.0963-0.46906 0.19266-0.70359 0.28899z" style="paint-order:fill markers stroke"/>
  <path d="m143.77 120.79c-0.70291 2.3323-0.0893 4.9316-0.29641 7.3645 0.68653 1.8794 3.2751 0.64713 4.802 1 1.4392-0.14878 4.4566 0.72311 4.1683-1.6337-0.17635-2.2253 0.36287-4.5919-0.28898-6.7234-2.4375-0.70484-5.1426-0.0904-7.6813-0.29641-0.23453 0.0963-0.46906 0.19266-0.70359 0.28899z" style="paint-order:fill markers stroke"/>
 </g>
</svg>
